<svg width="60" height="60" viewBox="0 0 60 60" fill="none" xmlns="http://www.w3.org/2000/svg">
<g clip-path="url(#clip0_634_15100)">
<rect width="60" height="60" rx="30" fill="#141413"/>
<g clip-path="url(#clip1_634_15100)">
<rect width="60" height="60" rx="30" fill="#141413"/>
<rect x="1.80811" y="6.92285" width="170.615" height="46.1538" rx="20" fill="#141413"/>
<path d="M31.7721 42.5298C31.6015 42.9736 30.9736 42.9736 30.8029 42.5298L27.8449 34.8385C27.7921 34.7014 27.6837 34.593 27.5466 34.5403L19.8553 31.5822C19.4115 31.4115 19.4115 30.7836 19.8553 30.613L27.5466 27.6549C27.6837 27.6022 27.7921 27.4938 27.8449 27.3567L30.8029 19.6654C30.9736 19.2216 31.6015 19.2216 31.7721 19.6654L34.7302 27.3567C34.7829 27.4938 34.8913 27.6022 35.0284 27.6549L42.7197 30.613C43.1635 30.7836 43.1635 31.4115 42.7197 31.5822L35.0284 34.5403C34.8913 34.593 34.7829 34.7014 34.7302 34.8385L31.7721 42.5298Z" fill="#FF671B"/>
<path d="M20.7477 25.358C20.5794 25.8027 19.9516 25.8062 19.7785 25.3633L18.8913 23.0936C18.8378 22.9567 18.7288 22.8489 18.5914 22.797L16.3121 21.9346C15.8674 21.7664 15.8639 21.1385 16.3068 20.9654L18.5765 20.0782C18.7134 20.0247 18.8212 19.9157 18.8731 19.7783L19.7355 17.499C19.9037 17.0543 20.5316 17.0508 20.7047 17.4937L21.5919 19.7634C21.6454 19.9003 21.7544 20.0081 21.8918 20.0601L24.1711 20.9224C24.6158 21.0907 24.6193 21.7185 24.1764 21.8916L21.9067 22.7788C21.7698 22.8323 21.662 22.9413 21.6101 23.0787L20.7477 25.358Z" fill="#D22A2F"/>
</g>
</g>
<defs>
<clipPath id="clip0_634_15100">
<rect width="60" height="60" rx="30" fill="white"/>
</clipPath>
<clipPath id="clip1_634_15100">
<rect width="60" height="60" rx="30" fill="white"/>
</clipPath>
</defs>
</svg>
