<svg width="208" height="71" viewBox="0 0 208 71" fill="none" xmlns="http://www.w3.org/2000/svg">
<circle cx="35.1166" cy="35.829" r="10.6269" fill="#F38B00"/>
<circle cx="35.1165" cy="35.8294" r="33.8408" stroke="#F38B00" stroke-width="2.45562"/>
<path d="M93.9021 35.6587C93.9021 33.7614 94.3258 32.0668 95.1731 30.5748C96.0388 29.0643 97.2085 27.8947 98.6821 27.0658C100.174 26.2185 101.841 25.7948 103.683 25.7948C105.838 25.7948 107.726 26.3474 109.347 27.4526C110.968 28.5578 112.101 30.0866 112.746 32.0391H108.297C107.855 31.1181 107.229 30.4274 106.418 29.9669C105.626 29.5064 104.705 29.2762 103.655 29.2762C102.532 29.2762 101.528 29.5432 100.644 30.0774C99.7781 30.5932 99.0965 31.33 98.5992 32.2878C98.1203 33.2456 97.8808 34.3693 97.8808 35.6587C97.8808 36.9296 98.1203 38.0532 98.5992 39.0295C99.0965 39.9873 99.7781 40.7333 100.644 41.2675C101.528 41.7833 102.532 42.0411 103.655 42.0411C104.705 42.0411 105.626 41.8109 106.418 41.3504C107.229 40.8715 107.855 40.1715 108.297 39.2505H112.746C112.101 41.2215 110.968 42.7595 109.347 43.8647C107.745 44.9515 105.857 45.4949 103.683 45.4949C101.841 45.4949 100.174 45.0804 98.6821 44.2515C97.2085 43.4042 96.0388 42.2346 95.1731 40.7425C94.3258 39.2505 93.9021 37.5559 93.9021 35.6587ZM115.055 37.6204C115.055 36.0731 115.359 34.7008 115.967 33.5035C116.593 32.3062 117.431 31.3852 118.481 30.7405C119.549 30.0958 120.737 29.7735 122.045 29.7735C123.187 29.7735 124.182 30.0037 125.029 30.4642C125.895 30.9247 126.586 31.505 127.102 32.2049V30.0222H130.997V45.3291H127.102V43.0911C126.604 43.8095 125.913 44.4081 125.029 44.887C124.164 45.3475 123.16 45.5778 122.018 45.5778C120.728 45.5778 119.549 45.2462 118.481 44.5831C117.431 43.92 116.593 42.9898 115.967 41.7925C115.359 40.5768 115.055 39.1861 115.055 37.6204ZM127.102 37.6756C127.102 36.7362 126.917 35.935 126.549 35.2718C126.181 34.5903 125.683 34.0745 125.057 33.7246C124.431 33.3562 123.758 33.172 123.04 33.172C122.322 33.172 121.658 33.347 121.051 33.6969C120.443 34.0469 119.945 34.5627 119.559 35.2442C119.19 35.9073 119.006 36.6994 119.006 37.6204C119.006 38.5414 119.19 39.3518 119.559 40.0518C119.945 40.7333 120.443 41.2583 121.051 41.6267C121.677 41.9951 122.34 42.1793 123.04 42.1793C123.758 42.1793 124.431 42.0043 125.057 41.6543C125.683 41.2859 126.181 40.7702 126.549 40.1071C126.917 39.4255 127.102 38.615 127.102 37.6756ZM143.258 29.8011C145.081 29.8011 146.555 30.3814 147.678 31.5418C148.802 32.6838 149.364 34.2864 149.364 36.3494V45.3291H145.496V36.8744C145.496 35.6587 145.192 34.7284 144.584 34.0838C143.976 33.4206 143.147 33.0891 142.097 33.0891C141.029 33.0891 140.182 33.4206 139.555 34.0838C138.947 34.7284 138.643 35.6587 138.643 36.8744V45.3291H134.775V30.0222H138.643V31.9286C139.159 31.2655 139.813 30.7497 140.605 30.3814C141.416 29.9945 142.3 29.8011 143.258 29.8011ZM152.048 37.6204C152.048 36.0731 152.352 34.7008 152.959 33.5035C153.586 32.3062 154.424 31.3852 155.474 30.7405C156.542 30.0958 157.73 29.7735 159.038 29.7735C160.18 29.7735 161.175 30.0037 162.022 30.4642C162.888 30.9247 163.578 31.505 164.094 32.2049V30.0222H167.99V45.3291H164.094V43.0911C163.597 43.8095 162.906 44.4081 162.022 44.887C161.156 45.3475 160.152 45.5778 159.01 45.5778C157.721 45.5778 156.542 45.2462 155.474 44.5831C154.424 43.92 153.586 42.9898 152.959 41.7925C152.352 40.5768 152.048 39.1861 152.048 37.6204ZM164.094 37.6756C164.094 36.7362 163.91 35.935 163.542 35.2718C163.173 34.5903 162.676 34.0745 162.05 33.7246C161.423 33.3562 160.751 33.172 160.033 33.172C159.314 33.172 158.651 33.347 158.043 33.6969C157.435 34.0469 156.938 34.5627 156.551 35.2442C156.183 35.9073 155.999 36.6994 155.999 37.6204C155.999 38.5414 156.183 39.3518 156.551 40.0518C156.938 40.7333 157.435 41.2583 158.043 41.6267C158.67 41.9951 159.333 42.1793 160.033 42.1793C160.751 42.1793 161.423 42.0043 162.05 41.6543C162.676 41.2859 163.173 40.7702 163.542 40.1071C163.91 39.4255 164.094 38.615 164.094 37.6756ZM170.773 37.6204C170.773 36.0731 171.077 34.7008 171.685 33.5035C172.311 32.3062 173.159 31.3852 174.227 30.7405C175.295 30.0958 176.483 29.7735 177.791 29.7735C178.786 29.7735 179.735 29.9945 180.637 30.4366C181.54 30.8603 182.258 31.4313 182.792 32.1497V24.883H186.716V45.3291H182.792V43.0635C182.313 43.8187 181.641 44.4265 180.775 44.887C179.91 45.3475 178.906 45.5778 177.764 45.5778C176.474 45.5778 175.295 45.2462 174.227 44.5831C173.159 43.92 172.311 42.9898 171.685 41.7925C171.077 40.5768 170.773 39.1861 170.773 37.6204ZM182.82 37.6756C182.82 36.7362 182.636 35.935 182.267 35.2718C181.899 34.5903 181.402 34.0745 180.775 33.7246C180.149 33.3562 179.477 33.172 178.758 33.172C178.04 33.172 177.377 33.347 176.769 33.6969C176.161 34.0469 175.664 34.5627 175.277 35.2442C174.909 35.9073 174.724 36.6994 174.724 37.6204C174.724 38.5414 174.909 39.3518 175.277 40.0518C175.664 40.7333 176.161 41.2583 176.769 41.6267C177.395 41.9951 178.058 42.1793 178.758 42.1793C179.477 42.1793 180.149 42.0043 180.775 41.6543C181.402 41.2859 181.899 40.7702 182.267 40.1071C182.636 39.4255 182.82 38.615 182.82 37.6756ZM189.499 37.6204C189.499 36.0731 189.803 34.7008 190.411 33.5035C191.037 32.3062 191.875 31.3852 192.925 30.7405C193.993 30.0958 195.182 29.7735 196.489 29.7735C197.631 29.7735 198.626 30.0037 199.473 30.4642C200.339 30.9247 201.03 31.505 201.546 32.2049V30.0222H205.441V45.3291H201.546V43.0911C201.048 43.8095 200.358 44.4081 199.473 44.887C198.608 45.3475 197.604 45.5778 196.462 45.5778C195.172 45.5778 193.993 45.2462 192.925 44.5831C191.875 43.92 191.037 42.9898 190.411 41.7925C189.803 40.5768 189.499 39.1861 189.499 37.6204ZM201.546 37.6756C201.546 36.7362 201.361 35.935 200.993 35.2718C200.625 34.5903 200.127 34.0745 199.501 33.7246C198.875 33.3562 198.202 33.172 197.484 33.172C196.766 33.172 196.103 33.347 195.495 33.6969C194.887 34.0469 194.389 34.5627 194.003 35.2442C193.634 35.9073 193.45 36.6994 193.45 37.6204C193.45 38.5414 193.634 39.3518 194.003 40.0518C194.389 40.7333 194.887 41.2583 195.495 41.6267C196.121 41.9951 196.784 42.1793 197.484 42.1793C198.202 42.1793 198.875 42.0043 199.501 41.6543C200.127 41.2859 200.625 40.7702 200.993 40.1071C201.361 39.4255 201.546 38.615 201.546 37.6756Z" fill="white"/>
</svg>
