<svg width="60" height="60" viewBox="0 0 60 60" fill="none" xmlns="http://www.w3.org/2000/svg">
<g clip-path="url(#clip0_634_15120)">
<rect width="60" height="60" rx="30" fill="#141413"/>
<g clip-path="url(#clip1_634_15120)">
<rect width="60" height="60" rx="30" fill="#141413"/>
<rect x="1.80762" y="6.92285" width="170.615" height="46.1538" rx="20" fill="#141413"/>
<path d="M31.7717 42.5298C31.601 42.9736 30.9731 42.9736 30.8024 42.5298L27.8444 34.8385C27.7916 34.7014 27.6833 34.593 27.5461 34.5403L19.8548 31.5822C19.411 31.4115 19.411 30.7836 19.8548 30.613L27.5461 27.6549C27.6833 27.6022 27.7916 27.4938 27.8444 27.3567L30.8024 19.6654C30.9731 19.2216 31.601 19.2216 31.7717 19.6654L34.7297 27.3567C34.7824 27.4938 34.8908 27.6022 35.0279 27.6549L42.7193 30.613C43.163 30.7836 43.163 31.4115 42.7193 31.5822L35.0279 34.5403C34.8908 34.593 34.7824 34.7014 34.7297 34.8385L31.7717 42.5298Z" fill="#FF671B"/>
<path d="M20.7472 25.358C20.579 25.8027 19.9511 25.8062 19.778 25.3633L18.8908 23.0936C18.8373 22.9567 18.7283 22.8489 18.5909 22.797L16.3116 21.9346C15.8669 21.7664 15.8634 21.1385 16.3063 20.9654L18.5761 20.0782C18.7129 20.0247 18.8207 19.9157 18.8727 19.7783L19.735 17.499C19.9033 17.0543 20.5311 17.0508 20.7042 17.4937L21.5914 19.7634C21.6449 19.9003 21.7539 20.0081 21.8913 20.0601L24.1706 20.9224C24.6153 21.0907 24.6188 21.7185 24.1759 21.8916L21.9062 22.7788C21.7693 22.8323 21.6616 22.9413 21.6096 23.0787L20.7472 25.358Z" fill="#D22A2F"/>
</g>
</g>
<defs>
<clipPath id="clip0_634_15120">
<rect width="60" height="60" rx="30" fill="white"/>
</clipPath>
<clipPath id="clip1_634_15120">
<rect width="60" height="60" rx="30" fill="white"/>
</clipPath>
</defs>
</svg>
