<svg width="60" height="60" viewBox="0 0 60 60" fill="none" xmlns="http://www.w3.org/2000/svg">
<g clip-path="url(#clip0_634_15220)">
<rect width="60" height="60" rx="30" fill="#141413"/>
<g clip-path="url(#clip1_634_15220)">
<rect width="60" height="60" rx="30" fill="#141413"/>
<rect x="1.80811" y="6.9231" width="170.615" height="46.1538" rx="20" fill="#141413"/>
<path d="M31.7726 42.5313C31.602 42.9751 30.9741 42.9751 30.8034 42.5313L27.8453 34.84C27.7926 34.7028 27.6842 34.5945 27.5471 34.5417L19.8558 31.5837C19.412 31.413 19.412 30.7851 19.8558 30.6144L27.5471 27.6564C27.6842 27.6036 27.7926 27.4953 27.8453 27.3581L30.8034 19.6668C30.9741 19.223 31.602 19.223 31.7726 19.6668L34.7307 27.3581C34.7834 27.4953 34.8918 27.6036 35.0289 27.6564L42.7202 30.6144C43.164 30.7851 43.164 31.413 42.7202 31.5837L35.0289 34.5417C34.8918 34.5945 34.7834 34.7028 34.7307 34.84L31.7726 42.5313Z" fill="#FF671B"/>
<path d="M20.7482 25.3595C20.5799 25.8042 19.9521 25.8076 19.779 25.3648L18.8918 23.095C18.8383 22.9582 18.7293 22.8504 18.5919 22.7984L16.3126 21.9361C15.8679 21.7678 15.8644 21.1399 16.3073 20.9668L18.577 20.0796C18.7139 20.0261 18.8216 19.9172 18.8736 19.7798L19.736 17.5005C19.9042 17.0557 20.5321 17.0523 20.7052 17.4952L21.5924 19.7649C21.6459 19.9018 21.7549 20.0095 21.8923 20.0615L24.1716 20.9239C24.6163 21.0921 24.6198 21.72 24.1769 21.8931L21.9071 22.7803C21.7703 22.8338 21.6625 22.9428 21.6105 23.0802L20.7482 25.3595Z" fill="#D22A2F"/>
</g>
</g>
<defs>
<clipPath id="clip0_634_15220">
<rect width="60" height="60" rx="30" fill="white"/>
</clipPath>
<clipPath id="clip1_634_15220">
<rect width="60" height="60" rx="30" fill="white"/>
</clipPath>
</defs>
</svg>
