<svg width="101" height="38" viewBox="0 0 101 38" fill="none" xmlns="http://www.w3.org/2000/svg">
<circle cx="19.4687" cy="19.2773" r="10.7119" fill="white"/>
<circle cx="19.4686" cy="19.2772" r="17.8531" stroke="white" stroke-width="1.42825"/>
<path d="M55.9559 18.8533C56.7167 18.9951 57.342 19.3755 57.832 19.9944C58.322 20.6133 58.5669 21.3225 58.5669 22.1219C58.5669 22.844 58.3864 23.4822 58.0254 24.0367C57.6773 24.5782 57.1679 25.0037 56.4975 25.3132C55.827 25.6226 55.034 25.7773 54.1185 25.7773H48.2969V12.2774H53.8671C54.7826 12.2774 55.5691 12.4257 56.2267 12.7222C56.8972 13.0188 57.4 13.4314 57.7353 13.9601C58.0834 14.4887 58.2575 15.0883 58.2575 15.7588C58.2575 16.5453 58.0447 17.2029 57.6192 17.7315C57.2066 18.2602 56.6522 18.6341 55.9559 18.8533ZM51.0046 17.8476H53.4803C54.125 17.8476 54.6214 17.7057 54.9695 17.4221C55.3177 17.1255 55.4917 16.7065 55.4917 16.1649C55.4917 15.6234 55.3177 15.2043 54.9695 14.9078C54.6214 14.6112 54.125 14.4629 53.4803 14.4629H51.0046V17.8476ZM53.7317 23.5725C54.3893 23.5725 54.8986 23.4178 55.2596 23.1083C55.6336 22.7988 55.8205 22.3605 55.8205 21.7931C55.8205 21.2129 55.6271 20.7616 55.2403 20.4393C54.8535 20.104 54.3313 19.9364 53.6737 19.9364H51.0046V23.5725H53.7317ZM63.4327 16.7258C63.7808 16.1585 64.2321 15.7136 64.7865 15.3913C65.3539 15.0689 65.9986 14.9078 66.7206 14.9078V17.7509H66.005C65.154 17.7509 64.5093 17.9507 64.0709 18.3504C63.6454 18.7502 63.4327 19.4464 63.4327 20.4393V25.7773H60.725V15.0625H63.4327V16.7258ZM67.8482 20.3812C67.8482 19.2981 68.0609 18.3375 68.4864 17.4994C68.9248 16.6613 69.5115 16.0166 70.2464 15.5654C70.9943 15.1141 71.8259 14.8884 72.7414 14.8884C73.5408 14.8884 74.2371 15.0496 74.8302 15.3719C75.4362 15.6943 75.9198 16.1004 76.2808 16.5904V15.0625H79.0078V25.7773H76.2808V24.2107C75.9326 24.7136 75.4491 25.1326 74.8302 25.4679C74.2242 25.7902 73.5215 25.9514 72.7221 25.9514C71.8195 25.9514 70.9943 25.7193 70.2464 25.2551C69.5115 24.791 68.9248 24.1398 68.4864 23.3017C68.0609 22.4507 67.8482 21.4772 67.8482 20.3812ZM76.2808 20.4199C76.2808 19.7623 76.1518 19.2014 75.894 18.7373C75.6361 18.2602 75.2879 17.8992 74.8496 17.6542C74.4112 17.3963 73.9405 17.2673 73.4377 17.2673C72.9348 17.2673 72.4706 17.3898 72.0451 17.6348C71.6196 17.8798 71.2715 18.2408 71.0007 18.7179C70.7428 19.1821 70.6139 19.7365 70.6139 20.3812C70.6139 21.0259 70.7428 21.5933 71.0007 22.0832C71.2715 22.5603 71.6196 22.9278 72.0451 23.1857C72.4835 23.4435 72.9477 23.5725 73.4377 23.5725C73.9405 23.5725 74.4112 23.45 74.8496 23.205C75.2879 22.9471 75.6361 22.5861 75.894 22.1219C76.1518 21.6448 76.2808 21.0775 76.2808 20.4199ZM84.128 23.5531H88.9052V25.7773H81.0528V23.5918L85.7333 17.2867H81.0722V15.0625H88.8472V17.248L84.128 23.5531ZM92.375 13.786C91.8979 13.786 91.4982 13.6377 91.1758 13.3411C90.8664 13.0317 90.7117 12.6513 90.7117 12.2C90.7117 11.7487 90.8664 11.3748 91.1758 11.0783C91.4982 10.7688 91.8979 10.6141 92.375 10.6141C92.852 10.6141 93.2453 10.7688 93.5548 11.0783C93.8771 11.3748 94.0383 11.7487 94.0383 12.2C94.0383 12.6513 93.8771 13.0317 93.5548 13.3411C93.2453 13.6377 92.852 13.786 92.375 13.786ZM93.7095 15.0625V25.7773H91.0018V15.0625H93.7095ZM99.0925 11.4651V25.7773H96.3847V11.4651H99.0925Z" fill="white"/>
</svg>
