<svg width="134" height="50" viewBox="0 0 134 50" fill="none" xmlns="http://www.w3.org/2000/svg">
<circle cx="24.9601" cy="24.9596" r="14.4" fill="white"/>
<circle cx="24.96" cy="24.96" r="24" stroke="white" stroke-width="1.92"/>
<path d="M74.0099 25.152C75.0326 25.3426 75.8733 25.854 76.5319 26.686C77.1906 27.518 77.5199 28.4713 77.5199 29.546C77.5199 30.5166 77.2773 31.3746 76.7919 32.12C76.3239 32.848 75.6393 33.42 74.7379 33.836C73.8366 34.252 72.7706 34.46 71.5399 34.46H63.7139V16.312H71.2019C72.4326 16.312 73.4899 16.5113 74.3739 16.91C75.2753 17.3086 75.9513 17.8633 76.4019 18.574C76.8699 19.2846 77.1039 20.0906 77.1039 20.992C77.1039 22.0493 76.8179 22.9333 76.2459 23.644C75.6913 24.3546 74.9459 24.8573 74.0099 25.152ZM67.3539 23.8H70.6819C71.5486 23.8 72.2159 23.6093 72.6839 23.228C73.1519 22.8293 73.3859 22.266 73.3859 21.538C73.3859 20.81 73.1519 20.2466 72.6839 19.848C72.2159 19.4493 71.5486 19.25 70.6819 19.25H67.3539V23.8ZM71.0199 31.496C71.9039 31.496 72.5886 31.288 73.0739 30.872C73.5766 30.456 73.8279 29.8666 73.8279 29.104C73.8279 28.324 73.5679 27.7173 73.0479 27.284C72.5279 26.8333 71.8259 26.608 70.9419 26.608H67.3539V31.496H71.0199ZM84.061 22.292C84.529 21.5293 85.1356 20.9313 85.881 20.498C86.6436 20.0646 87.5103 19.848 88.481 19.848V23.67H87.519C86.375 23.67 85.5083 23.9386 84.919 24.476C84.347 25.0133 84.061 25.9493 84.061 27.284V34.46H80.421V20.056H84.061V22.292ZM89.9967 27.206C89.9967 25.75 90.2827 24.4586 90.8547 23.332C91.444 22.2053 92.2327 21.3386 93.2207 20.732C94.226 20.1253 95.344 19.822 96.5747 19.822C97.6493 19.822 98.5853 20.0386 99.3827 20.472C100.197 20.9053 100.847 21.4513 101.333 22.11V20.056H104.999V34.46H101.333V32.354C100.865 33.03 100.215 33.5933 99.3827 34.044C98.568 34.4773 97.6233 34.694 96.5487 34.694C95.3353 34.694 94.226 34.382 93.2207 33.758C92.2327 33.134 91.444 32.2586 90.8547 31.132C90.2827 29.988 89.9967 28.6793 89.9967 27.206ZM101.333 27.258C101.333 26.374 101.159 25.62 100.813 24.996C100.466 24.3546 99.998 23.8693 99.4087 23.54C98.8193 23.1933 98.1867 23.02 97.5107 23.02C96.8347 23.02 96.2107 23.1846 95.6387 23.514C95.0667 23.8433 94.5987 24.3286 94.2347 24.97C93.888 25.594 93.7147 26.3393 93.7147 27.206C93.7147 28.0726 93.888 28.8353 94.2347 29.494C94.5987 30.1353 95.0667 30.6293 95.6387 30.976C96.228 31.3226 96.852 31.496 97.5107 31.496C98.1867 31.496 98.8193 31.3313 99.4087 31.002C99.998 30.6553 100.466 30.17 100.813 29.546C101.159 28.9046 101.333 28.142 101.333 27.258ZM111.882 31.47H118.304V34.46H107.748V31.522L114.04 23.046H107.774V20.056H118.226V22.994L111.882 31.47ZM122.968 18.34C122.327 18.34 121.789 18.1406 121.356 17.742C120.94 17.326 120.732 16.8146 120.732 16.208C120.732 15.6013 120.94 15.0986 121.356 14.7C121.789 14.284 122.327 14.076 122.968 14.076C123.609 14.076 124.138 14.284 124.554 14.7C124.987 15.0986 125.204 15.6013 125.204 16.208C125.204 16.8146 124.987 17.326 124.554 17.742C124.138 18.1406 123.609 18.34 122.968 18.34ZM124.762 20.056V34.46H121.122V20.056H124.762ZM131.998 15.22V34.46H128.358V15.22H131.998Z" fill="white"/>
</svg>
