<svg width="193" height="50" viewBox="0 0 193 50" fill="none" xmlns="http://www.w3.org/2000/svg">
<circle cx="24.9601" cy="24.9596" r="14.4" fill="white"/>
<circle cx="24.96" cy="24.96" r="24" stroke="white" stroke-width="1.92"/>
<path d="M62.8299 25.36C62.8299 23.5746 63.2286 21.98 64.0259 20.576C64.8406 19.1546 65.9413 18.054 67.3279 17.274C68.7319 16.4766 70.3006 16.078 72.0339 16.078C74.0619 16.078 75.8386 16.598 77.3639 17.638C78.8893 18.678 79.9553 20.1166 80.5619 21.954H76.3759C75.9599 21.0873 75.3706 20.4373 74.6079 20.004C73.8626 19.5706 72.9959 19.354 72.0079 19.354C70.9506 19.354 70.0059 19.6053 69.1739 20.108C68.3593 20.5933 67.7179 21.2866 67.2499 22.188C66.7993 23.0893 66.5739 24.1466 66.5739 25.36C66.5739 26.556 66.7993 27.6133 67.2499 28.532C67.7179 29.4333 68.3593 30.1353 69.1739 30.638C70.0059 31.1233 70.9506 31.366 72.0079 31.366C72.9959 31.366 73.8626 31.1493 74.6079 30.716C75.3706 30.2653 75.9599 29.6066 76.3759 28.74H80.5619C79.9553 30.5946 78.8893 32.042 77.3639 33.082C75.8559 34.1046 74.0793 34.616 72.0339 34.616C70.3006 34.616 68.7319 34.226 67.3279 33.446C65.9413 32.6486 64.8406 31.548 64.0259 30.144C63.2286 28.74 62.8299 27.1453 62.8299 25.36ZM90.067 34.694C88.6803 34.694 87.4323 34.3906 86.323 33.784C85.2136 33.16 84.3383 32.2846 83.697 31.158C83.073 30.0313 82.761 28.7313 82.761 27.258C82.761 25.7846 83.0816 24.4846 83.723 23.358C84.3816 22.2313 85.2743 21.3646 86.401 20.758C87.5276 20.134 88.7843 19.822 90.171 19.822C91.5576 19.822 92.8143 20.134 93.941 20.758C95.0676 21.3646 95.9516 22.2313 96.593 23.358C97.2516 24.4846 97.581 25.7846 97.581 27.258C97.581 28.7313 97.243 30.0313 96.567 31.158C95.9083 32.2846 95.007 33.16 93.863 33.784C92.7363 34.3906 91.471 34.694 90.067 34.694ZM90.067 31.522C90.7256 31.522 91.341 31.366 91.913 31.054C92.5023 30.7246 92.9703 30.2393 93.317 29.598C93.6636 28.9566 93.837 28.1766 93.837 27.258C93.837 25.8886 93.473 24.84 92.745 24.112C92.0343 23.3666 91.159 22.994 90.119 22.994C89.079 22.994 88.2036 23.3666 87.493 24.112C86.7996 24.84 86.453 25.8886 86.453 27.258C86.453 28.6273 86.791 29.6846 87.467 30.43C88.1603 31.158 89.027 31.522 90.067 31.522ZM103.891 15.22V34.46H100.251V15.22H103.891ZM113.883 34.694C112.497 34.694 111.249 34.3906 110.139 33.784C109.03 33.16 108.155 32.2846 107.513 31.158C106.889 30.0313 106.577 28.7313 106.577 27.258C106.577 25.7846 106.898 24.4846 107.539 23.358C108.198 22.2313 109.091 21.3646 110.217 20.758C111.344 20.134 112.601 19.822 113.987 19.822C115.374 19.822 116.631 20.134 117.757 20.758C118.884 21.3646 119.768 22.2313 120.409 23.358C121.068 24.4846 121.397 25.7846 121.397 27.258C121.397 28.7313 121.059 30.0313 120.383 31.158C119.725 32.2846 118.823 33.16 117.679 33.784C116.553 34.3906 115.287 34.694 113.883 34.694ZM113.883 31.522C114.542 31.522 115.157 31.366 115.729 31.054C116.319 30.7246 116.787 30.2393 117.133 29.598C117.48 28.9566 117.653 28.1766 117.653 27.258C117.653 25.8886 117.289 24.84 116.561 24.112C115.851 23.3666 114.975 22.994 113.935 22.994C112.895 22.994 112.02 23.3666 111.309 24.112C110.616 24.84 110.269 25.8886 110.269 27.258C110.269 28.6273 110.607 29.6846 111.283 30.43C111.977 31.158 112.843 31.522 113.883 31.522ZM141.955 19.848C143.723 19.848 145.145 20.394 146.219 21.486C147.311 22.5606 147.857 24.0686 147.857 26.01V34.46H144.217V26.504C144.217 25.3773 143.931 24.5193 143.359 23.93C142.787 23.3233 142.007 23.02 141.019 23.02C140.031 23.02 139.243 23.3233 138.653 23.93C138.081 24.5193 137.795 25.3773 137.795 26.504V34.46H134.155V26.504C134.155 25.3773 133.869 24.5193 133.297 23.93C132.725 23.3233 131.945 23.02 130.957 23.02C129.952 23.02 129.155 23.3233 128.565 23.93C127.993 24.5193 127.707 25.3773 127.707 26.504V34.46H124.067V20.056H127.707V21.798C128.175 21.1913 128.773 20.7146 129.501 20.368C130.247 20.0213 131.061 19.848 131.945 19.848C133.072 19.848 134.077 20.0906 134.961 20.576C135.845 21.044 136.53 21.72 137.015 22.604C137.483 21.772 138.159 21.1046 139.043 20.602C139.945 20.0993 140.915 19.848 141.955 19.848ZM154.952 22.162C155.42 21.4686 156.061 20.9053 156.876 20.472C157.708 20.0386 158.652 19.822 159.71 19.822C160.94 19.822 162.05 20.1253 163.038 20.732C164.043 21.3386 164.832 22.2053 165.404 23.332C165.993 24.4413 166.288 25.7326 166.288 27.206C166.288 28.6793 165.993 29.988 165.404 31.132C164.832 32.2586 164.043 33.134 163.038 33.758C162.05 34.382 160.94 34.694 159.71 34.694C158.635 34.694 157.69 34.486 156.876 34.07C156.078 33.6366 155.437 33.082 154.952 32.406V34.46H151.312V15.22H154.952V22.162ZM162.57 27.206C162.57 26.3393 162.388 25.594 162.024 24.97C161.677 24.3286 161.209 23.8433 160.62 23.514C160.048 23.1846 159.424 23.02 158.748 23.02C158.089 23.02 157.465 23.1933 156.876 23.54C156.304 23.8693 155.836 24.3546 155.472 24.996C155.125 25.6373 154.952 26.3913 154.952 27.258C154.952 28.1246 155.125 28.8786 155.472 29.52C155.836 30.1613 156.304 30.6553 156.876 31.002C157.465 31.3313 158.089 31.496 158.748 31.496C159.424 31.496 160.048 31.3226 160.62 30.976C161.209 30.6293 161.677 30.1353 162.024 29.494C162.388 28.8526 162.57 28.09 162.57 27.206ZM170.779 18.34C170.137 18.34 169.6 18.1406 169.167 17.742C168.751 17.326 168.543 16.8146 168.543 16.208C168.543 15.6013 168.751 15.0986 169.167 14.7C169.6 14.284 170.137 14.076 170.779 14.076C171.42 14.076 171.949 14.284 172.365 14.7C172.798 15.0986 173.015 15.6013 173.015 16.208C173.015 16.8146 172.798 17.326 172.365 17.742C171.949 18.1406 171.42 18.34 170.779 18.34ZM172.573 20.056V34.46H168.933V20.056H172.573ZM175.233 27.206C175.233 25.75 175.519 24.4586 176.091 23.332C176.68 22.2053 177.469 21.3386 178.457 20.732C179.462 20.1253 180.58 19.822 181.811 19.822C182.886 19.822 183.822 20.0386 184.619 20.472C185.434 20.9053 186.084 21.4513 186.569 22.11V20.056H190.235V34.46H186.569V32.354C186.101 33.03 185.451 33.5933 184.619 34.044C183.804 34.4773 182.86 34.694 181.785 34.694C180.572 34.694 179.462 34.382 178.457 33.758C177.469 33.134 176.68 32.2586 176.091 31.132C175.519 29.988 175.233 28.6793 175.233 27.206ZM186.569 27.258C186.569 26.374 186.396 25.62 186.049 24.996C185.702 24.3546 185.234 23.8693 184.645 23.54C184.056 23.1933 183.423 23.02 182.747 23.02C182.071 23.02 181.447 23.1846 180.875 23.514C180.303 23.8433 179.835 24.3286 179.471 24.97C179.124 25.594 178.951 26.3393 178.951 27.206C178.951 28.0726 179.124 28.8353 179.471 29.494C179.835 30.1353 180.303 30.6293 180.875 30.976C181.464 31.3226 182.088 31.496 182.747 31.496C183.423 31.496 184.056 31.3313 184.645 31.002C185.234 30.6553 185.702 30.17 186.049 29.546C186.396 28.9046 186.569 28.142 186.569 27.258Z" fill="white"/>
</svg>
