<svg width="260" height="88" viewBox="0 0 260 88" fill="none" xmlns="http://www.w3.org/2000/svg">
<circle cx="43.8353" cy="43.8353" r="13.2836" fill="#F38B00"/>
<circle cx="43.8358" cy="43.8358" r="42.3011" stroke="#F38B00" stroke-width="3.06953"/>
<path d="M117.318 43.7479C117.318 41.3763 117.848 39.258 118.907 37.393C119.989 35.505 121.451 34.0429 123.293 33.0068C125.158 31.9476 127.242 31.4181 129.544 31.4181C132.238 31.4181 134.598 32.1088 136.625 33.4903C138.651 34.8718 140.067 36.7829 140.873 39.2235H135.312C134.76 38.0722 133.977 37.2088 132.964 36.6332C131.974 36.0576 130.822 35.7698 129.51 35.7698C128.105 35.7698 126.85 36.1036 125.745 36.7713C124.663 37.416 123.811 38.337 123.19 39.5343C122.591 40.7316 122.292 42.1361 122.292 43.7479C122.292 45.3366 122.591 46.7411 123.19 47.9614C123.811 49.1587 124.663 50.0912 125.745 50.759C126.85 51.4036 128.105 51.726 129.51 51.726C130.822 51.726 131.974 51.4382 132.964 50.8626C133.977 50.2639 134.76 49.389 135.312 48.2377H140.873C140.067 50.7014 138.651 52.624 136.625 54.0055C134.621 55.3639 132.261 56.0432 129.544 56.0432C127.242 56.0432 125.158 55.5251 123.293 54.489C121.451 53.4298 119.989 51.9678 118.907 50.1027C117.848 48.2377 117.318 46.1194 117.318 43.7479ZM143.759 46.2C143.759 44.2659 144.139 42.5506 144.899 41.054C145.682 39.5574 146.729 38.4061 148.042 37.6002C149.377 36.7944 150.862 36.3914 152.497 36.3914C153.925 36.3914 155.168 36.6792 156.227 37.2549C157.309 37.8305 158.173 38.5558 158.817 39.4307V36.7023H163.687V55.8359H158.817V53.0384C158.196 53.9364 157.332 54.6847 156.227 55.2833C155.145 55.859 153.89 56.1468 152.463 56.1468C150.851 56.1468 149.377 55.7323 148.042 54.9034C146.729 54.0745 145.682 52.9118 144.899 51.4152C144.139 49.8955 143.759 48.1571 143.759 46.2ZM158.817 46.2691C158.817 45.0948 158.587 44.0933 158.127 43.2644C157.666 42.4124 157.045 41.7677 156.262 41.3303C155.479 40.8698 154.638 40.6395 153.74 40.6395C152.843 40.6395 152.014 40.8583 151.254 41.2957C150.494 41.7332 149.872 42.3779 149.389 43.2298C148.928 44.0587 148.698 45.0488 148.698 46.2C148.698 47.3513 148.928 48.3644 149.389 49.2393C149.872 50.0912 150.494 50.7474 151.254 51.2079C152.037 51.6684 152.866 51.8987 153.74 51.8987C154.638 51.8987 155.479 51.6799 156.262 51.2425C157.045 50.782 157.666 50.1373 158.127 49.3084C158.587 48.4565 158.817 47.4434 158.817 46.2691ZM179.013 36.426C181.292 36.426 183.134 37.1513 184.539 38.6018C185.943 40.0294 186.645 42.0325 186.645 44.6113V55.8359H181.81V45.2675C181.81 43.7479 181.43 42.5851 180.67 41.7793C179.911 40.9504 178.874 40.5359 177.562 40.5359C176.227 40.5359 175.167 40.9504 174.385 41.7793C173.625 42.5851 173.245 43.7479 173.245 45.2675V55.8359H168.41V36.7023H173.245V39.0853C173.89 38.2564 174.707 37.6117 175.697 37.1513C176.71 36.6677 177.815 36.426 179.013 36.426ZM190 46.2C190 44.2659 190.38 42.5506 191.14 41.054C191.923 39.5574 192.97 38.4061 194.283 37.6002C195.618 36.7944 197.103 36.3914 198.738 36.3914C200.166 36.3914 201.409 36.6792 202.468 37.2549C203.55 37.8305 204.414 38.5558 205.058 39.4307V36.7023H209.928V55.8359H205.058V53.0384C204.437 53.9364 203.573 54.6847 202.468 55.2833C201.386 55.859 200.131 56.1468 198.703 56.1468C197.092 56.1468 195.618 55.7323 194.283 54.9034C192.97 54.0745 191.923 52.9118 191.14 51.4152C190.38 49.8955 190 48.1571 190 46.2ZM205.058 46.2691C205.058 45.0948 204.828 44.0933 204.368 43.2644C203.907 42.4124 203.285 41.7677 202.503 41.3303C201.72 40.8698 200.879 40.6395 199.981 40.6395C199.083 40.6395 198.254 40.8583 197.495 41.2957C196.735 41.7332 196.113 42.3779 195.63 43.2298C195.169 44.0587 194.939 45.0488 194.939 46.2C194.939 47.3513 195.169 48.3644 195.63 49.2393C196.113 50.0912 196.735 50.7474 197.495 51.2079C198.278 51.6684 199.106 51.8987 199.981 51.8987C200.879 51.8987 201.72 51.6799 202.503 51.2425C203.285 50.782 203.907 50.1373 204.368 49.3084C204.828 48.4565 205.058 47.4434 205.058 46.2691ZM213.407 46.2C213.407 44.2659 213.787 42.5506 214.547 41.054C215.33 39.5574 216.389 38.4061 217.724 37.6002C219.06 36.7944 220.545 36.3914 222.18 36.3914C223.423 36.3914 224.609 36.6677 225.737 37.2203C226.865 37.7499 227.763 38.4637 228.431 39.3616V30.2783H233.335V55.8359H228.431V53.0039C227.832 53.9479 226.992 54.7077 225.91 55.2833C224.828 55.859 223.573 56.1468 222.145 56.1468C220.533 56.1468 219.06 55.7323 217.724 54.9034C216.389 54.0745 215.33 52.9118 214.547 51.4152C213.787 49.8955 213.407 48.1571 213.407 46.2ZM228.465 46.2691C228.465 45.0948 228.235 44.0933 227.775 43.2644C227.314 42.4124 226.693 41.7677 225.91 41.3303C225.127 40.8698 224.286 40.6395 223.388 40.6395C222.491 40.6395 221.662 40.8583 220.902 41.2957C220.142 41.7332 219.52 42.3779 219.037 43.2298C218.576 44.0587 218.346 45.0488 218.346 46.2C218.346 47.3513 218.576 48.3644 219.037 49.2393C219.52 50.0912 220.142 50.7474 220.902 51.2079C221.685 51.6684 222.514 51.8987 223.388 51.8987C224.286 51.8987 225.127 51.6799 225.91 51.2425C226.693 50.782 227.314 50.1373 227.775 49.3084C228.235 48.4565 228.465 47.4434 228.465 46.2691ZM236.814 46.2C236.814 44.2659 237.194 42.5506 237.954 41.054C238.737 39.5574 239.785 38.4061 241.097 37.6002C242.432 36.7944 243.917 36.3914 245.552 36.3914C246.98 36.3914 248.223 36.6792 249.282 37.2549C250.364 37.8305 251.228 38.5558 251.873 39.4307V36.7023H256.742V55.8359H251.873V53.0384C251.251 53.9364 250.387 54.6847 249.282 55.2833C248.2 55.859 246.945 56.1468 245.518 56.1468C243.906 56.1468 242.432 55.7323 241.097 54.9034C239.785 54.0745 238.737 52.9118 237.954 51.4152C237.194 49.8955 236.814 48.1571 236.814 46.2ZM251.873 46.2691C251.873 45.0948 251.642 44.0933 251.182 43.2644C250.721 42.4124 250.1 41.7677 249.317 41.3303C248.534 40.8698 247.694 40.6395 246.796 40.6395C245.898 40.6395 245.069 40.8583 244.309 41.2957C243.549 41.7332 242.927 42.3779 242.444 43.2298C241.983 44.0587 241.753 45.0488 241.753 46.2C241.753 47.3513 241.983 48.3644 242.444 49.2393C242.927 50.0912 243.549 50.7474 244.309 51.2079C245.092 51.6684 245.921 51.8987 246.796 51.8987C247.694 51.8987 248.534 51.6799 249.317 51.2425C250.1 50.782 250.721 50.1373 251.182 49.3084C251.642 48.4565 251.873 47.4434 251.873 46.2691Z" fill="white"/>
</svg>
