<svg width="42" height="52" viewBox="0 0 42 52" fill="none" xmlns="http://www.w3.org/2000/svg">
<path d="M16.3283 51.997C10.5697 52.0067 4.97551 50.0489 0.44751 46.4391C3.44756 44.0458 5.88873 41.009 7.59611 37.5461C9.36045 33.9623 10.2736 30.0093 10.2624 26.0034C10.2735 21.9978 9.36033 18.0452 7.59611 14.4617C5.88861 10.9987 3.44747 7.9615 0.44751 5.56773C5.3908 1.63142 11.5834 -0.332704 17.8563 0.0461407C24.1293 0.424985 30.0485 3.12059 34.4966 7.62408C38.0826 11.2628 40.5236 15.8995 41.5104 20.9468C42.4972 25.9941 41.9853 31.2249 40.0397 35.9769C38.094 40.7288 34.8022 44.788 30.5809 47.6404C26.3597 50.4928 21.3991 52.01 16.3273 52L16.3283 51.997ZM40.2813 42.1085H40.0977V41.1021H40.3584L40.6581 41.7955L40.9579 41.1021H41.2176V42.1085H41.035V41.3458L40.7538 42.0035H40.5586L40.2774 41.3468V42.1085H40.2813ZM39.5686 42.1085H39.387V41.2705H39.0531V41.1001H39.9034V41.2705H39.5695L39.5686 42.1085Z" fill="#F79E1B"/>
</svg>
