<svg width="42" height="52" viewBox="0 0 42 52" fill="none" xmlns="http://www.w3.org/2000/svg">
<path d="M16.3281 51.997C10.5694 52.0067 4.97527 50.0489 0.447266 46.4391C3.44732 44.0458 5.88849 41.009 7.59587 37.5461C9.3602 33.9623 10.2733 30.0093 10.2622 26.0034C10.2732 21.9978 9.36009 18.0452 7.59587 14.4617C5.88836 10.9987 3.44723 7.9615 0.447266 5.56773C5.39055 1.63142 11.5832 -0.332704 17.8561 0.0461407C24.129 0.424985 30.0483 3.12059 34.4964 7.62408C38.0824 11.2628 40.5234 15.8995 41.5102 20.9468C42.4969 25.9941 41.9851 31.2249 40.0394 35.9769C38.0938 40.7288 34.8019 44.788 30.5807 47.6404C26.3595 50.4928 21.3988 52.01 16.3271 52L16.3281 51.997ZM40.281 42.1085H40.0975V41.1021H40.3582L40.6579 41.7955L40.9576 41.1021H41.2173V42.1085H41.0348V41.3458L40.7536 42.0035H40.5583L40.2771 41.3468V42.1085H40.281ZM39.5683 42.1085H39.3867V41.2705H39.0528V41.1001H39.9032V41.2705H39.5693L39.5683 42.1085Z" fill="#F79E1B"/>
</svg>
