<svg width="42" height="52" viewBox="0 0 42 52" fill="none" xmlns="http://www.w3.org/2000/svg">
<path d="M16.3282 51.997C10.5696 52.0067 4.97545 50.0489 0.447449 46.4391C3.4475 44.0458 5.88867 41.009 7.59605 37.5461C9.36038 33.9623 10.2735 30.0093 10.2624 26.0034C10.2734 21.9978 9.36027 18.0452 7.59605 14.4617C5.88855 10.9987 3.44741 7.9615 0.447449 5.56773C5.39074 1.63142 11.5834 -0.332704 17.8563 0.0461407C24.1292 0.424985 30.0484 3.12059 34.4965 7.62408C38.0826 11.2628 40.5236 15.8995 41.5103 20.9468C42.4971 25.9941 41.9852 31.2249 40.0396 35.9769C38.094 40.7288 34.8021 44.788 30.5809 47.6404C26.3597 50.4928 21.399 52.01 16.3273 52L16.3282 51.997ZM40.2812 42.1085H40.0977V41.1021H40.3584L40.6581 41.7955L40.9578 41.1021H41.2175V42.1085H41.0349V41.3458L40.7538 42.0035H40.5585L40.2773 41.3468V42.1085H40.2812ZM39.5685 42.1085H39.3869V41.2705H39.053V41.1001H39.9034V41.2705H39.5695L39.5685 42.1085Z" fill="#F79E1B"/>
</svg>
