<svg width="173" height="18" viewBox="0 0 173 18" fill="none" xmlns="http://www.w3.org/2000/svg">
<path d="M9.60972 13.824H0.000117136V0.383973H2.16972V11.7696H9.60972V13.824ZM15.4419 4.38717C16.1523 4.38717 16.8083 4.51197 17.4099 4.76157C18.0179 5.00477 18.5427 5.34397 18.9843 5.77917C19.4259 6.20797 19.7715 6.71677 20.0211 7.30557C20.2707 7.89437 20.3955 8.53437 20.3955 9.22557C20.3955 9.91677 20.2707 10.5568 20.0211 11.1456C19.7715 11.7344 19.4259 12.2464 18.9843 12.6816C18.5427 13.1104 18.0179 13.4496 17.4099 13.6992C16.8083 13.9424 16.1523 14.064 15.4419 14.064C14.7315 14.064 14.0723 13.9424 13.4643 13.6992C12.8627 13.4496 12.3411 13.1104 11.8995 12.6816C11.4643 12.2464 11.1219 11.7344 10.8723 11.1456C10.6227 10.5568 10.4979 9.91677 10.4979 9.22557C10.4979 8.53437 10.6227 7.89437 10.8723 7.30557C11.1219 6.71677 11.4643 6.20797 11.8995 5.77917C12.3411 5.34397 12.8627 5.00477 13.4643 4.76157C14.0723 4.51197 14.7315 4.38717 15.4419 4.38717ZM15.4419 6.27837C15.0323 6.27837 14.6515 6.35197 14.2995 6.49917C13.9475 6.63997 13.6435 6.84157 13.3875 7.10397C13.1315 7.35997 12.9299 7.67037 12.7827 8.03517C12.6355 8.39357 12.5619 8.79037 12.5619 9.22557C12.5619 9.66077 12.6355 10.0608 12.7827 10.4256C12.9299 10.784 13.1315 11.0944 13.3875 11.3568C13.6435 11.6128 13.9475 11.8144 14.2995 11.9616C14.6515 12.1024 15.0323 12.1728 15.4419 12.1728C15.8515 12.1728 16.2323 12.1024 16.5843 11.9616C16.9363 11.8144 17.2403 11.6128 17.4963 11.3568C17.7587 11.0944 17.9635 10.784 18.1107 10.4256C18.2579 10.0608 18.3315 9.66077 18.3315 9.22557C18.3315 8.79037 18.2579 8.39357 18.1107 8.03517C17.9635 7.67037 17.7587 7.35997 17.4963 7.10397C17.2403 6.84157 16.9363 6.63997 16.5843 6.49917C16.2323 6.35197 15.8515 6.27837 15.4419 6.27837ZM31.327 13.824H29.3206V12.72C29.0006 13.1296 28.6038 13.456 28.1302 13.6992C27.6566 13.9424 27.0902 14.064 26.431 14.064C25.7846 14.064 25.183 13.9456 24.6262 13.7088C24.0694 13.4656 23.583 13.1296 23.167 12.7008C22.751 12.272 22.4246 11.7632 22.1878 11.1744C21.951 10.5792 21.8326 9.92957 21.8326 9.22557C21.8326 8.52157 21.951 7.87517 22.1878 7.28637C22.4246 6.69117 22.751 6.17917 23.167 5.75037C23.583 5.32157 24.0694 4.98877 24.6262 4.75197C25.183 4.50877 25.7846 4.38717 26.431 4.38717C27.0902 4.38717 27.6566 4.51197 28.1302 4.76157C28.6038 5.00477 29.0006 5.33117 29.3206 5.74077V4.62717H31.327V13.824ZM26.671 6.27837C26.2358 6.27837 25.8454 6.35837 25.4998 6.51837C25.1606 6.67197 24.8726 6.88317 24.6358 7.15197C24.399 7.41437 24.2166 7.72477 24.0886 8.08317C23.9606 8.44157 23.8966 8.82237 23.8966 9.22557C23.8966 9.62877 23.9606 10.0096 24.0886 10.368C24.2166 10.7264 24.399 11.04 24.6358 11.3088C24.8726 11.5712 25.1606 11.7824 25.4998 11.9424C25.8454 12.096 26.2358 12.1728 26.671 12.1728C27.087 12.1728 27.4646 12.0992 27.8038 11.952C28.143 11.7984 28.4342 11.5904 28.6774 11.328C28.9206 11.0656 29.1094 10.7552 29.2438 10.3968C29.3782 10.0384 29.4454 9.64797 29.4454 9.22557C29.4454 8.80317 29.3782 8.41277 29.2438 8.05437C29.1094 7.69597 28.9206 7.38557 28.6774 7.12317C28.4342 6.86077 28.143 6.65597 27.8038 6.50877C27.4646 6.35517 27.087 6.27837 26.671 6.27837ZM38.0283 4.38717C38.6875 4.38717 39.2539 4.51197 39.7275 4.76157C40.2011 5.00477 40.5979 5.33117 40.9179 5.74077V-2.64893e-05H42.9243V13.824H40.9179V12.72C40.5979 13.1296 40.2011 13.456 39.7275 13.6992C39.2539 13.9424 38.6875 14.064 38.0283 14.064C37.3819 14.064 36.7803 13.9456 36.2235 13.7088C35.6667 13.4656 35.1803 13.1296 34.7643 12.7008C34.3483 12.272 34.0219 11.7632 33.7851 11.1744C33.5483 10.5792 33.4299 9.92957 33.4299 9.22557C33.4299 8.52157 33.5483 7.87517 33.7851 7.28637C34.0219 6.69117 34.3483 6.17917 34.7643 5.75037C35.1803 5.32157 35.6667 4.98877 36.2235 4.75197C36.7803 4.50877 37.3819 4.38717 38.0283 4.38717ZM38.2683 6.27837C37.8331 6.27837 37.4427 6.35837 37.0971 6.51837C36.7579 6.67197 36.4699 6.88317 36.2331 7.15197C35.9963 7.41437 35.8139 7.72477 35.6859 8.08317C35.5579 8.44157 35.4939 8.82237 35.4939 9.22557C35.4939 9.62877 35.5579 10.0096 35.6859 10.368C35.8139 10.7264 35.9963 11.04 36.2331 11.3088C36.4699 11.5712 36.7579 11.7824 37.0971 11.9424C37.4427 12.096 37.8331 12.1728 38.2683 12.1728C38.6843 12.1728 39.0619 12.0992 39.4011 11.952C39.7403 11.7984 40.0315 11.5904 40.2747 11.328C40.5179 11.0656 40.7067 10.7552 40.8411 10.3968C40.9755 10.0384 41.0427 9.64797 41.0427 9.22557C41.0427 8.80317 40.9755 8.41277 40.8411 8.05437C40.7067 7.69597 40.5179 7.38557 40.2747 7.12317C40.0315 6.86077 39.7403 6.65597 39.4011 6.50877C39.0619 6.35517 38.6843 6.27837 38.2683 6.27837ZM47.7055 13.824H45.6895V4.62717H47.7055V13.824ZM46.6879 0.0287737C46.8863 0.0287737 47.0719 0.0671736 47.2447 0.143973C47.4175 0.214374 47.5679 0.313574 47.6959 0.441574C47.8239 0.569573 47.9231 0.719973 47.9935 0.892773C48.0703 1.06557 48.1087 1.25117 48.1087 1.44957C48.1087 1.64797 48.0703 1.83357 47.9935 2.00637C47.9231 2.17917 47.8239 2.32957 47.6959 2.45757C47.5679 2.57917 47.4175 2.67517 47.2447 2.74557C47.0719 2.81597 46.8863 2.85117 46.6879 2.85117C46.4895 2.85117 46.3039 2.81597 46.1311 2.74557C45.9583 2.67517 45.8079 2.57917 45.6799 2.45757C45.5583 2.32957 45.4623 2.17917 45.3919 2.00637C45.3215 1.83357 45.2863 1.64797 45.2863 1.44957C45.2863 1.25117 45.3215 1.06557 45.3919 0.892773C45.4623 0.719973 45.5583 0.569573 45.6799 0.441574C45.8079 0.313574 45.9583 0.214374 46.1311 0.143973C46.3039 0.0671736 46.4895 0.0287737 46.6879 0.0287737ZM55.281 4.38717C55.825 4.38717 56.3242 4.47677 56.7786 4.65597C57.2394 4.83517 57.6362 5.08797 57.969 5.41437C58.3018 5.73437 58.5578 6.11837 58.737 6.56637C58.9226 7.01437 59.0154 7.50717 59.0154 8.04477V13.824H56.9994V8.70717C56.9994 7.93277 56.8106 7.33757 56.433 6.92157C56.0618 6.50557 55.537 6.29757 54.8586 6.29757C54.5322 6.29757 54.225 6.35197 53.937 6.46077C53.649 6.56317 53.3962 6.71677 53.1786 6.92157C52.9674 7.12637 52.7978 7.38237 52.6698 7.68957C52.5418 7.99037 52.4778 8.33597 52.4778 8.72637V13.824H50.4618V4.62717H52.4586V5.75037C52.6442 5.48157 52.849 5.26077 53.073 5.08797C53.3034 4.90877 53.5434 4.76797 53.793 4.66557C54.0426 4.56317 54.2922 4.49277 54.5418 4.45437C54.7978 4.40957 55.0442 4.38717 55.281 4.38717ZM65.284 4.38717C65.956 4.38717 66.548 4.50237 67.06 4.73277C67.572 4.95677 68.0008 5.28957 68.3464 5.73117V4.62717H70.3624V13.1808C70.3624 13.904 70.2472 14.5536 70.0168 15.1296C69.7928 15.7056 69.4696 16.1952 69.0472 16.5984C68.6248 17.0016 68.1064 17.3088 67.492 17.52C66.884 17.7376 66.196 17.8464 65.428 17.8464C65.0824 17.8464 64.7336 17.824 64.3816 17.7792C64.0296 17.7344 63.684 17.664 63.3448 17.568C63.012 17.4784 62.6952 17.3664 62.3944 17.232C62.0936 17.104 61.8216 16.9536 61.5784 16.7808L62.308 15.0816C62.7752 15.3696 63.2712 15.5968 63.796 15.7632C64.3208 15.9296 64.8648 16.0128 65.428 16.0128C66.3752 16.0128 67.0984 15.7696 67.5976 15.2832C68.0968 14.7968 68.3464 14.1248 68.3464 13.2672V12.528C68.0008 12.9696 67.572 13.3056 67.06 13.536C66.548 13.76 65.956 13.872 65.284 13.872C64.7592 13.872 64.2408 13.7664 63.7288 13.5552C63.2232 13.3376 62.7688 13.0272 62.3656 12.624C61.9624 12.2144 61.636 11.7152 61.3864 11.1264C61.1432 10.5376 61.0216 9.87197 61.0216 9.12957C61.0216 8.38717 61.1432 7.72157 61.3864 7.13277C61.636 6.54397 61.9624 6.04797 62.3656 5.64477C62.7688 5.23517 63.2232 4.92477 63.7288 4.71357C64.2408 4.49597 64.7592 4.38717 65.284 4.38717ZM65.8024 6.27837C65.38 6.27837 64.9992 6.35517 64.66 6.50877C64.3272 6.65597 64.0424 6.86077 63.8056 7.12317C63.5752 7.37917 63.396 7.67997 63.268 8.02557C63.1464 8.37117 63.0856 8.73917 63.0856 9.12957C63.0856 9.51357 63.1464 9.87837 63.268 10.224C63.396 10.5696 63.5752 10.8736 63.8056 11.136C64.0424 11.392 64.3272 11.5968 64.66 11.7504C64.9992 11.904 65.38 11.9808 65.8024 11.9808C66.2056 11.9808 66.5736 11.9072 66.9064 11.76C67.2456 11.6128 67.5336 11.4144 67.7704 11.1648C68.0072 10.9088 68.1896 10.608 68.3176 10.2624C68.452 9.91037 68.5192 9.53277 68.5192 9.12957C68.5192 8.72637 68.452 8.35197 68.3176 8.00637C68.1896 7.65437 68.0072 7.35357 67.7704 7.10397C67.5336 6.84797 67.2456 6.64637 66.9064 6.49917C66.5736 6.35197 66.2056 6.27837 65.8024 6.27837ZM80.3415 8.54397V13.824H78.1719V0.383973H83.3847C84.1591 0.383973 84.8407 0.479973 85.4295 0.671973C86.0247 0.857573 86.5239 1.12637 86.9271 1.47837C87.3303 1.83037 87.6343 2.25917 87.8391 2.76477C88.0439 3.27037 88.1463 3.83677 88.1463 4.46397C88.1463 5.09117 88.0439 5.65757 87.8391 6.16317C87.6343 6.66877 87.3303 7.09757 86.9271 7.44957C86.5239 7.80157 86.0247 8.07357 85.4295 8.26557C84.8407 8.45117 84.1591 8.54397 83.3847 8.54397H80.3415ZM80.3415 2.42877V6.49917H83.3271C84.2103 6.49917 84.8567 6.33597 85.2663 6.00957C85.6823 5.67677 85.8903 5.16157 85.8903 4.46397C85.8903 3.76637 85.6823 3.25437 85.2663 2.92797C84.8567 2.59517 84.2103 2.42877 83.3271 2.42877H80.3415ZM93.8863 4.38717C94.5263 4.38717 95.1119 4.50557 95.6431 4.74237C96.1807 4.97277 96.6383 5.30237 97.0159 5.73117C97.3999 6.15357 97.6975 6.66237 97.9087 7.25757C98.1263 7.84637 98.2351 8.49917 98.2351 9.21597C98.2351 9.34397 98.2319 9.47197 98.2255 9.59997C98.2191 9.72797 98.2095 9.84957 98.1967 9.96477H91.3999C91.4639 10.3808 91.5823 10.736 91.7551 11.0304C91.9279 11.3248 92.1359 11.568 92.3791 11.76C92.6223 11.9456 92.8943 12.0832 93.1951 12.1728C93.4959 12.2624 93.8095 12.3072 94.1359 12.3072C94.5967 12.3072 95.0575 12.224 95.5183 12.0576C95.9855 11.8848 96.4111 11.6448 96.7951 11.3376L97.7935 12.768C97.2303 13.248 96.6319 13.584 95.9983 13.776C95.3711 13.968 94.7087 14.064 94.0111 14.064C93.3199 14.064 92.6863 13.9488 92.1103 13.7184C91.5343 13.488 91.0383 13.1616 90.6223 12.7392C90.2063 12.3168 89.8831 11.808 89.6527 11.2128C89.4223 10.6176 89.3071 9.95517 89.3071 9.22557C89.3071 8.50877 89.4191 7.85277 89.6431 7.25757C89.8671 6.66237 90.1807 6.15357 90.5839 5.73117C90.9871 5.30237 91.4671 4.97277 92.0239 4.74237C92.5871 4.50557 93.2079 4.38717 93.8863 4.38717ZM93.8479 6.17277C93.4895 6.17277 93.1695 6.22717 92.8879 6.33597C92.6127 6.44477 92.3727 6.60157 92.1679 6.80637C91.9695 7.00477 91.8063 7.24477 91.6783 7.52637C91.5503 7.80157 91.4607 8.10557 91.4095 8.43837H96.1807C96.0719 7.72157 95.8159 7.16477 95.4127 6.76797C95.0095 6.37117 94.4879 6.17277 93.8479 6.17277ZM104.985 4.38717C105.292 4.38717 105.568 4.40957 105.811 4.45437C106.06 4.49277 106.3 4.55677 106.531 4.64637L106.051 6.63357C105.84 6.52477 105.593 6.44157 105.312 6.38397C105.03 6.32637 104.768 6.29757 104.524 6.29757C104.204 6.29757 103.91 6.35197 103.641 6.46077C103.372 6.56957 103.142 6.72957 102.95 6.94077C102.758 7.15197 102.608 7.41117 102.499 7.71837C102.39 8.02557 102.336 8.37437 102.336 8.76477V13.824H100.329V4.62717H102.316V5.66397C102.624 5.22237 103.004 4.89917 103.459 4.69437C103.913 4.48957 104.422 4.38717 104.985 4.38717ZM114.267 6.93117C114.126 6.84797 113.953 6.76157 113.749 6.67197C113.544 6.57597 113.317 6.48957 113.067 6.41277C112.817 6.33597 112.552 6.27197 112.27 6.22077C111.995 6.16957 111.713 6.14397 111.425 6.14397C110.875 6.14397 110.446 6.24637 110.139 6.45117C109.838 6.64957 109.688 6.91197 109.688 7.23837C109.688 7.39837 109.726 7.53277 109.803 7.64157C109.886 7.75037 109.995 7.83997 110.129 7.91037C110.264 7.98077 110.424 8.03837 110.609 8.08317C110.795 8.12157 110.993 8.15677 111.205 8.18877L112.155 8.33277C113.16 8.47997 113.944 8.77437 114.507 9.21597C115.07 9.65117 115.352 10.2624 115.352 11.0496C115.352 11.4912 115.256 11.8976 115.064 12.2688C114.878 12.6336 114.606 12.9504 114.248 13.2192C113.896 13.4816 113.457 13.6864 112.933 13.8336C112.414 13.9808 111.825 14.0544 111.166 14.0544C110.929 14.0544 110.654 14.0384 110.341 14.0064C110.027 13.9808 109.694 13.9232 109.342 13.8336C108.99 13.7504 108.632 13.632 108.267 13.4784C107.902 13.3248 107.553 13.1232 107.221 12.8736L108.152 11.3664C108.318 11.4944 108.497 11.616 108.689 11.7312C108.888 11.84 109.109 11.9392 109.352 12.0288C109.601 12.112 109.873 12.1792 110.168 12.2304C110.469 12.2816 110.808 12.3072 111.185 12.3072C111.877 12.3072 112.398 12.208 112.75 12.0096C113.102 11.8048 113.278 11.5296 113.278 11.184C113.278 10.9216 113.15 10.7072 112.894 10.5408C112.638 10.368 112.235 10.2432 111.685 10.1664L110.725 10.0416C109.701 9.90077 108.923 9.60317 108.392 9.14877C107.867 8.68797 107.605 8.08637 107.605 7.34397C107.605 6.88957 107.691 6.47997 107.864 6.11517C108.043 5.75037 108.296 5.44317 108.622 5.19357C108.955 4.93757 109.355 4.74237 109.822 4.60797C110.289 4.46717 110.817 4.39677 111.406 4.39677C112.129 4.39677 112.811 4.48317 113.451 4.65597C114.091 4.82237 114.651 5.05917 115.131 5.36637L114.267 6.93117ZM121.618 4.38717C122.328 4.38717 122.984 4.51197 123.586 4.76157C124.194 5.00477 124.719 5.34397 125.16 5.77917C125.602 6.20797 125.947 6.71677 126.197 7.30557C126.447 7.89437 126.571 8.53437 126.571 9.22557C126.571 9.91677 126.447 10.5568 126.197 11.1456C125.947 11.7344 125.602 12.2464 125.16 12.6816C124.719 13.1104 124.194 13.4496 123.586 13.6992C122.984 13.9424 122.328 14.064 121.618 14.064C120.907 14.064 120.248 13.9424 119.64 13.6992C119.039 13.4496 118.517 13.1104 118.075 12.6816C117.64 12.2464 117.298 11.7344 117.048 11.1456C116.799 10.5568 116.674 9.91677 116.674 9.22557C116.674 8.53437 116.799 7.89437 117.048 7.30557C117.298 6.71677 117.64 6.20797 118.075 5.77917C118.517 5.34397 119.039 5.00477 119.64 4.76157C120.248 4.51197 120.907 4.38717 121.618 4.38717ZM121.618 6.27837C121.208 6.27837 120.827 6.35197 120.475 6.49917C120.123 6.63997 119.819 6.84157 119.563 7.10397C119.307 7.35997 119.106 7.67037 118.959 8.03517C118.811 8.39357 118.738 8.79037 118.738 9.22557C118.738 9.66077 118.811 10.0608 118.959 10.4256C119.106 10.784 119.307 11.0944 119.563 11.3568C119.819 11.6128 120.123 11.8144 120.475 11.9616C120.827 12.1024 121.208 12.1728 121.618 12.1728C122.027 12.1728 122.408 12.1024 122.76 11.9616C123.112 11.8144 123.416 11.6128 123.672 11.3568C123.935 11.0944 124.139 10.784 124.287 10.4256C124.434 10.0608 124.507 9.66077 124.507 9.22557C124.507 8.79037 124.434 8.39357 124.287 8.03517C124.139 7.67037 123.935 7.35997 123.672 7.10397C123.416 6.84157 123.112 6.63997 122.76 6.49917C122.408 6.35197 122.027 6.27837 121.618 6.27837ZM133.49 4.38717C134.034 4.38717 134.533 4.47677 134.988 4.65597C135.449 4.83517 135.845 5.08797 136.178 5.41437C136.511 5.73437 136.767 6.11837 136.946 6.56637C137.132 7.01437 137.225 7.50717 137.225 8.04477V13.824H135.209V8.70717C135.209 7.93277 135.02 7.33757 134.642 6.92157C134.271 6.50557 133.746 6.29757 133.068 6.29757C132.741 6.29757 132.434 6.35197 132.146 6.46077C131.858 6.56317 131.605 6.71677 131.388 6.92157C131.177 7.12637 131.007 7.38237 130.879 7.68957C130.751 7.99037 130.687 8.33597 130.687 8.72637V13.824H128.671V4.62717H130.668V5.75037C130.853 5.48157 131.058 5.26077 131.282 5.08797C131.513 4.90877 131.753 4.76797 132.002 4.66557C132.252 4.56317 132.501 4.49277 132.751 4.45437C133.007 4.40957 133.253 4.38717 133.49 4.38717ZM148.725 13.824H146.719V12.72C146.399 13.1296 146.002 13.456 145.528 13.6992C145.055 13.9424 144.488 14.064 143.829 14.064C143.183 14.064 142.581 13.9456 142.024 13.7088C141.468 13.4656 140.981 13.1296 140.565 12.7008C140.149 12.272 139.823 11.7632 139.586 11.1744C139.349 10.5792 139.231 9.92957 139.231 9.22557C139.231 8.52157 139.349 7.87517 139.586 7.28637C139.823 6.69117 140.149 6.17917 140.565 5.75037C140.981 5.32157 141.468 4.98877 142.024 4.75197C142.581 4.50877 143.183 4.38717 143.829 4.38717C144.488 4.38717 145.055 4.51197 145.528 4.76157C146.002 5.00477 146.399 5.33117 146.719 5.74077V4.62717H148.725V13.824ZM144.069 6.27837C143.634 6.27837 143.244 6.35837 142.898 6.51837C142.559 6.67197 142.271 6.88317 142.034 7.15197C141.797 7.41437 141.615 7.72477 141.487 8.08317C141.359 8.44157 141.295 8.82237 141.295 9.22557C141.295 9.62877 141.359 10.0096 141.487 10.368C141.615 10.7264 141.797 11.04 142.034 11.3088C142.271 11.5712 142.559 11.7824 142.898 11.9424C143.244 12.096 143.634 12.1728 144.069 12.1728C144.485 12.1728 144.863 12.0992 145.202 11.952C145.541 11.7984 145.832 11.5904 146.076 11.328C146.319 11.0656 146.508 10.7552 146.642 10.3968C146.776 10.0384 146.844 9.64797 146.844 9.22557C146.844 8.80317 146.776 8.41277 146.642 8.05437C146.508 7.69597 146.319 7.38557 146.076 7.12317C145.832 6.86077 145.541 6.65597 145.202 6.50877C144.863 6.35517 144.485 6.27837 144.069 6.27837ZM157.75 6.93117C157.609 6.84797 157.436 6.76157 157.231 6.67197C157.027 6.57597 156.799 6.48957 156.55 6.41277C156.3 6.33597 156.035 6.27197 155.753 6.22077C155.478 6.16957 155.196 6.14397 154.908 6.14397C154.358 6.14397 153.929 6.24637 153.622 6.45117C153.321 6.64957 153.171 6.91197 153.171 7.23837C153.171 7.39837 153.209 7.53277 153.286 7.64157C153.369 7.75037 153.478 7.83997 153.612 7.91037C153.747 7.98077 153.907 8.03837 154.092 8.08317C154.278 8.12157 154.476 8.15677 154.687 8.18877L155.638 8.33277C156.643 8.47997 157.427 8.77437 157.99 9.21597C158.553 9.65117 158.835 10.2624 158.835 11.0496C158.835 11.4912 158.739 11.8976 158.547 12.2688C158.361 12.6336 158.089 12.9504 157.731 13.2192C157.379 13.4816 156.94 13.6864 156.415 13.8336C155.897 13.9808 155.308 14.0544 154.649 14.0544C154.412 14.0544 154.137 14.0384 153.823 14.0064C153.51 13.9808 153.177 13.9232 152.825 13.8336C152.473 13.7504 152.115 13.632 151.75 13.4784C151.385 13.3248 151.036 13.1232 150.703 12.8736L151.635 11.3664C151.801 11.4944 151.98 11.616 152.172 11.7312C152.371 11.84 152.591 11.9392 152.835 12.0288C153.084 12.112 153.356 12.1792 153.651 12.2304C153.951 12.2816 154.291 12.3072 154.668 12.3072C155.359 12.3072 155.881 12.208 156.233 12.0096C156.585 11.8048 156.761 11.5296 156.761 11.184C156.761 10.9216 156.633 10.7072 156.377 10.5408C156.121 10.368 155.718 10.2432 155.167 10.1664L154.207 10.0416C153.183 9.90077 152.406 9.60317 151.875 9.14877C151.35 8.68797 151.087 8.08637 151.087 7.34397C151.087 6.88957 151.174 6.47997 151.347 6.11517C151.526 5.75037 151.779 5.44317 152.105 5.19357C152.438 4.93757 152.838 4.74237 153.305 4.60797C153.772 4.46717 154.3 4.39677 154.889 4.39677C155.612 4.39677 156.294 4.48317 156.934 4.65597C157.574 4.82237 158.134 5.05917 158.614 5.36637L157.75 6.93117ZM161.789 10.704C162.013 10.704 162.224 10.7488 162.422 10.8384C162.627 10.928 162.806 11.0496 162.96 11.2032C163.113 11.3568 163.235 11.536 163.325 11.7408C163.414 11.9392 163.459 12.1504 163.459 12.3744C163.459 12.5984 163.414 12.8128 163.325 13.0176C163.235 13.2224 163.113 13.4016 162.96 13.5552C162.806 13.7088 162.627 13.8304 162.422 13.92C162.224 14.016 162.013 14.064 161.789 14.064C161.565 14.064 161.35 14.016 161.145 13.92C160.947 13.8304 160.771 13.7088 160.617 13.5552C160.464 13.4016 160.339 13.2224 160.243 13.0176C160.153 12.8128 160.109 12.5984 160.109 12.3744C160.109 12.1504 160.153 11.9392 160.243 11.7408C160.339 11.536 160.464 11.3568 160.617 11.2032C160.771 11.0496 160.947 10.928 161.145 10.8384C161.35 10.7488 161.565 10.704 161.789 10.704ZM166.486 10.704C166.71 10.704 166.921 10.7488 167.119 10.8384C167.324 10.928 167.503 11.0496 167.657 11.2032C167.811 11.3568 167.932 11.536 168.022 11.7408C168.111 11.9392 168.156 12.1504 168.156 12.3744C168.156 12.5984 168.111 12.8128 168.022 13.0176C167.932 13.2224 167.811 13.4016 167.657 13.5552C167.503 13.7088 167.324 13.8304 167.119 13.92C166.921 14.016 166.71 14.064 166.486 14.064C166.262 14.064 166.047 14.016 165.843 13.92C165.644 13.8304 165.468 13.7088 165.315 13.5552C165.161 13.4016 165.036 13.2224 164.94 13.0176C164.851 12.8128 164.806 12.5984 164.806 12.3744C164.806 12.1504 164.851 11.9392 164.94 11.7408C165.036 11.536 165.161 11.3568 165.315 11.2032C165.468 11.0496 165.644 10.928 165.843 10.8384C166.047 10.7488 166.262 10.704 166.486 10.704ZM171.183 10.704C171.407 10.704 171.618 10.7488 171.817 10.8384C172.022 10.928 172.201 11.0496 172.354 11.2032C172.508 11.3568 172.63 11.536 172.719 11.7408C172.809 11.9392 172.854 12.1504 172.854 12.3744C172.854 12.5984 172.809 12.8128 172.719 13.0176C172.63 13.2224 172.508 13.4016 172.354 13.5552C172.201 13.7088 172.022 13.8304 171.817 13.92C171.618 14.016 171.407 14.064 171.183 14.064C170.959 14.064 170.745 14.016 170.54 13.92C170.342 13.8304 170.166 13.7088 170.012 13.5552C169.858 13.4016 169.734 13.2224 169.638 13.0176C169.548 12.8128 169.503 12.5984 169.503 12.3744C169.503 12.1504 169.548 11.9392 169.638 11.7408C169.734 11.536 169.858 11.3568 170.012 11.2032C170.166 11.0496 170.342 10.928 170.54 10.8384C170.745 10.7488 170.959 10.704 171.183 10.704Z" fill="black"/>
</svg>
