<svg width="117" height="39" viewBox="0 0 117 39" fill="none" xmlns="http://www.w3.org/2000/svg">
<path d="M16.8259 12.543V26.043H14.1182V17.2622L10.5014 26.043H8.45128L4.8152 17.2622V26.043H2.10747V12.543H5.18267L9.47635 22.5809L13.77 12.543H16.8259ZM29.4635 20.4535C29.4635 20.8403 29.4377 21.1884 29.3861 21.4979H21.5531C21.6175 22.2715 21.8883 22.8775 22.3654 23.3159C22.8425 23.7543 23.4291 23.9735 24.1254 23.9735C25.1311 23.9735 25.8468 23.5415 26.2723 22.6777H29.1927C28.8833 23.7092 28.2902 24.5602 27.4134 25.2307C26.5366 25.8882 25.4599 26.217 24.1834 26.217C23.1519 26.217 22.2236 25.9914 21.3984 25.5401C20.586 25.0759 19.9478 24.4248 19.4836 23.5867C19.0323 22.7486 18.8067 21.7815 18.8067 20.6855C18.8067 19.5767 19.0323 18.6032 19.4836 17.7651C19.9349 16.927 20.5667 16.2823 21.379 15.831C22.1913 15.3797 23.1261 15.154 24.1834 15.154C25.2021 15.154 26.1111 15.3732 26.9105 15.8116C27.7228 16.25 28.3482 16.8754 28.7866 17.6877C29.2379 18.4871 29.4635 19.409 29.4635 20.4535ZM26.6591 19.6798C26.6462 18.9835 26.3948 18.4291 25.9048 18.0165C25.4148 17.591 24.8152 17.3782 24.1061 17.3782C23.4356 17.3782 22.8683 17.5846 22.4041 17.9972C21.9528 18.3969 21.6756 18.9578 21.5724 19.6798H26.6591ZM37.3582 26.043L35.1534 22.7163L33.1999 26.043H30.2988L33.7995 20.6662L30.2601 15.3281H33.316L35.5015 18.6354L37.4743 15.3281H40.3754L36.8554 20.6662L40.4141 26.043H37.3582ZM43.2579 14.0516C42.7809 14.0516 42.3812 13.9033 42.0588 13.6068C41.7494 13.2973 41.5946 12.9169 41.5946 12.4657C41.5946 12.0144 41.7494 11.6404 42.0588 11.3439C42.3812 11.0344 42.7809 10.8797 43.2579 10.8797C43.735 10.8797 44.1283 11.0344 44.4377 11.3439C44.7601 11.6404 44.9213 12.0144 44.9213 12.4657C44.9213 12.9169 44.7601 13.2973 44.4377 13.6068C44.1283 13.9033 43.735 14.0516 43.2579 14.0516ZM44.5925 15.3281V26.043H41.8847V15.3281H44.5925ZM46.5714 20.6855C46.5714 19.5767 46.7971 18.6096 47.2484 17.7844C47.6997 16.9463 48.325 16.3016 49.1244 15.8503C49.9239 15.3861 50.8393 15.154 51.8708 15.154C53.1989 15.154 54.2949 15.4893 55.1588 16.1598C56.0356 16.8174 56.6222 17.7457 56.9188 18.9449H53.9983C53.8436 18.4807 53.5793 18.1196 53.2054 17.8618C52.8443 17.591 52.393 17.4556 51.8515 17.4556C51.0779 17.4556 50.4654 17.7393 50.0141 18.3066C49.5628 18.861 49.3372 19.654 49.3372 20.6855C49.3372 21.7042 49.5628 22.4971 50.0141 23.0645C50.4654 23.6189 51.0779 23.8961 51.8515 23.8961C52.9475 23.8961 53.6631 23.4062 53.9983 22.4262H56.9188C56.6222 23.5867 56.0356 24.5086 55.1588 25.192C54.282 25.8753 53.186 26.217 51.8708 26.217C50.8393 26.217 49.9239 25.9914 49.1244 25.5401C48.325 25.0759 47.6997 24.4312 47.2484 23.606C46.7971 22.7679 46.5714 21.7944 46.5714 20.6855ZM63.6603 26.217C62.6288 26.217 61.7004 25.9914 60.8752 25.5401C60.05 25.0759 59.3989 24.4248 58.9218 23.5867C58.4576 22.7486 58.2255 21.7815 58.2255 20.6855C58.2255 19.5896 58.4641 18.6225 58.9411 17.7844C59.4311 16.9463 60.0952 16.3016 60.9333 15.8503C61.7714 15.3861 62.7062 15.154 63.7377 15.154C64.7692 15.154 65.704 15.3861 66.5421 15.8503C67.3802 16.3016 68.0378 16.9463 68.5149 17.7844C69.0049 18.6225 69.2498 19.5896 69.2498 20.6855C69.2498 21.7815 68.9984 22.7486 68.4955 23.5867C68.0056 24.4248 67.3351 25.0759 66.4841 25.5401C65.646 25.9914 64.7047 26.217 63.6603 26.217ZM63.6603 23.8574C64.1503 23.8574 64.608 23.7414 65.0335 23.5093C65.4719 23.2643 65.8201 22.9033 66.0779 22.4262C66.3358 21.9491 66.4648 21.3689 66.4648 20.6855C66.4648 19.6669 66.194 18.8868 65.6524 18.3453C65.1238 17.7909 64.4726 17.5136 63.699 17.5136C62.9254 17.5136 62.2742 17.7909 61.7456 18.3453C61.2298 18.8868 60.9719 19.6669 60.9719 20.6855C60.9719 21.7042 61.2234 22.4907 61.7262 23.0451C62.242 23.5867 62.8867 23.8574 63.6603 23.8574Z" fill="white"/>
<circle cx="98.2671" cy="19.5429" r="10.7119" fill="white"/>
<circle cx="98.267" cy="19.5428" r="17.8531" stroke="white" stroke-width="1.42825"/>
</svg>
