<svg width="179" height="38" viewBox="0 0 179 38" fill="none" xmlns="http://www.w3.org/2000/svg">
<circle cx="18.7343" cy="19.3427" r="10.7119" fill="white"/>
<circle cx="18.7343" cy="19.3427" r="17.8531" stroke="white" stroke-width="1.42825"/>
<path d="M50.2316 12.3428V20.6981C50.2316 21.6136 50.4701 22.3163 50.9472 22.8063C51.4243 23.2833 52.0948 23.5219 52.9587 23.5219C53.8354 23.5219 54.5124 23.2833 54.9895 22.8063C55.4665 22.3163 55.7051 21.6136 55.7051 20.6981V12.3428H58.4321V20.6788C58.4321 21.8263 58.1807 22.7998 57.6778 23.5992C57.1879 24.3858 56.5238 24.9789 55.6857 25.3786C54.8605 25.7783 53.9386 25.9782 52.92 25.9782C51.9143 25.9782 50.9988 25.7783 50.1736 25.3786C49.3613 24.9789 48.7166 24.3858 48.2395 23.5992C47.7624 22.7998 47.5239 21.8263 47.5239 20.6788V12.3428H50.2316ZM66.9859 14.9732C68.2624 14.9732 69.294 15.3793 70.0805 16.1917C70.867 16.9911 71.2603 18.1129 71.2603 19.557V25.8428H68.5526V19.9245C68.5526 19.0735 68.3398 18.4223 67.9143 17.971C67.4888 17.5068 66.9086 17.2748 66.1736 17.2748C65.4258 17.2748 64.8327 17.5068 64.3943 17.971C63.9688 18.4223 63.756 19.0735 63.756 19.9245V25.8428H61.0483V15.1279H63.756V16.4624C64.117 15.9983 64.5748 15.6372 65.1292 15.3793C65.6966 15.1086 66.3155 14.9732 66.9859 14.9732ZM75.2084 13.8514C74.7313 13.8514 74.3316 13.7031 74.0093 13.4066C73.6998 13.0971 73.5451 12.7168 73.5451 12.2655C73.5451 11.8142 73.6998 11.4403 74.0093 11.1437C74.3316 10.8342 74.7313 10.6795 75.2084 10.6795C75.6855 10.6795 76.0787 10.8342 76.3882 11.1437C76.7105 11.4403 76.8717 11.8142 76.8717 12.2655C76.8717 12.7168 76.7105 13.0971 76.3882 13.4066C76.0787 13.7031 75.6855 13.8514 75.2084 13.8514ZM76.5429 15.1279V25.8428H73.8352V15.1279H76.5429ZM82.3707 17.3521V22.5355C82.3707 22.8965 82.4545 23.1608 82.6222 23.3285C82.8027 23.4832 83.0992 23.5605 83.5118 23.5605H84.769V25.8428H83.067C80.7848 25.8428 79.6437 24.7339 79.6437 22.5161V17.3521H78.3672V15.1279H79.6437V12.4782H82.3707V15.1279H84.769V17.3521H82.3707ZM96.6771 20.2533C96.6771 20.6401 96.6513 20.9882 96.5997 21.2977H88.7667C88.8311 22.0713 89.1019 22.6773 89.579 23.1157C90.0561 23.5541 90.6427 23.7733 91.339 23.7733C92.3447 23.7733 93.0603 23.3414 93.4858 22.4775H96.4063C96.0969 23.509 95.5037 24.36 94.627 25.0305C93.7502 25.688 92.6735 26.0168 91.397 26.0168C90.3655 26.0168 89.4371 25.7912 88.6119 25.3399C87.7996 24.8757 87.1614 24.2246 86.6972 23.3865C86.2459 22.5484 86.0203 21.5813 86.0203 20.4853C86.0203 19.3765 86.2459 18.403 86.6972 17.5649C87.1485 16.7268 87.7803 16.0821 88.5926 15.6308C89.4049 15.1795 90.3397 14.9538 91.397 14.9538C92.4156 14.9538 93.3247 15.173 94.1241 15.6114C94.9364 16.0498 95.5618 16.6752 96.0002 17.4875C96.4514 18.2869 96.6771 19.2088 96.6771 20.2533ZM93.8727 19.4796C93.8598 18.7833 93.6083 18.2289 93.1184 17.8163C92.6284 17.3908 92.0288 17.1781 91.3197 17.1781C90.6492 17.1781 90.0818 17.3844 89.6177 17.797C89.1664 18.1967 88.8892 18.7576 88.786 19.4796H93.8727ZM97.9572 20.4467C97.9572 19.3636 98.17 18.403 98.5955 17.5649C99.0339 16.7268 99.627 16.0821 100.375 15.6308C101.123 15.1795 101.954 14.9538 102.87 14.9538C103.566 14.9538 104.23 15.1086 104.862 15.418C105.494 15.7146 105.997 16.1143 106.371 16.6172V11.5305H109.117V25.8428H106.371V24.2568C106.035 24.7855 105.565 25.211 104.959 25.5333C104.353 25.8557 103.65 26.0168 102.85 26.0168C101.948 26.0168 101.123 25.7848 100.375 25.3206C99.627 24.8564 99.0339 24.2052 98.5955 23.3671C98.17 22.5161 97.9572 21.5426 97.9572 20.4467ZM106.39 20.4853C106.39 19.8278 106.261 19.2669 106.003 18.8027C105.745 18.3256 105.397 17.9646 104.959 17.7196C104.52 17.4617 104.05 17.3328 103.547 17.3328C103.044 17.3328 102.58 17.4553 102.154 17.7003C101.729 17.9452 101.381 18.3063 101.11 18.7833C100.852 19.2475 100.723 19.802 100.723 20.4467C100.723 21.0914 100.852 21.6587 101.11 22.1487C101.381 22.6257 101.729 22.9932 102.154 23.2511C102.593 23.509 103.057 23.6379 103.547 23.6379C104.05 23.6379 104.52 23.5154 104.959 23.2704C105.397 23.0126 105.745 22.6515 106.003 22.1873C106.261 21.7103 106.39 21.1429 106.39 20.4853ZM121.031 25.9782C120.09 25.9782 119.239 25.817 118.478 25.4946C117.73 25.1723 117.137 24.7081 116.699 24.1021C116.26 23.4961 116.035 22.7805 116.022 21.9553H118.923C118.962 22.5097 119.155 22.9481 119.503 23.2704C119.864 23.5928 120.354 23.754 120.973 23.754C121.605 23.754 122.101 23.6057 122.462 23.3091C122.823 22.9997 123.004 22.6 123.004 22.11C123.004 21.7103 122.881 21.3815 122.636 21.1236C122.392 20.8657 122.082 20.6659 121.708 20.524C121.347 20.3693 120.844 20.2017 120.2 20.0212C119.323 19.7633 118.607 19.5119 118.053 19.2669C117.511 19.009 117.041 18.6286 116.641 18.1258C116.254 17.61 116.061 16.9266 116.061 16.0756C116.061 15.2762 116.26 14.5799 116.66 13.9868C117.06 13.3937 117.621 12.9424 118.343 12.6329C119.065 12.3106 119.89 12.1494 120.818 12.1494C122.211 12.1494 123.339 12.4911 124.203 13.1745C125.08 13.845 125.563 14.7862 125.654 15.9983H122.675C122.649 15.5341 122.45 15.1537 122.076 14.8571C121.715 14.5477 121.231 14.393 120.625 14.393C120.096 14.393 119.671 14.5283 119.349 14.7991C119.039 15.0699 118.884 15.4632 118.884 15.9789C118.884 16.3399 119 16.643 119.232 16.8879C119.477 17.12 119.774 17.3134 120.122 17.4682C120.483 17.61 120.986 17.7776 121.631 17.971C122.508 18.2289 123.223 18.4868 123.778 18.7447C124.332 19.0025 124.809 19.3894 125.209 19.9051C125.609 20.4209 125.808 21.0978 125.808 21.9359C125.808 22.658 125.621 23.3285 125.248 23.9474C124.874 24.5663 124.326 25.0627 123.604 25.4366C122.881 25.7976 122.024 25.9782 121.031 25.9782ZM131.308 17.3521V22.5355C131.308 22.8965 131.392 23.1608 131.56 23.3285C131.74 23.4832 132.037 23.5605 132.45 23.5605H133.707V25.8428H132.005C129.723 25.8428 128.581 24.7339 128.581 22.5161V17.3521H127.305V15.1279H128.581V12.4782H131.308V15.1279H133.707V17.3521H131.308ZM134.958 20.4467C134.958 19.3636 135.171 18.403 135.596 17.5649C136.035 16.7268 136.621 16.0821 137.356 15.6308C138.104 15.1795 138.936 14.9538 139.851 14.9538C140.651 14.9538 141.347 15.115 141.94 15.4374C142.546 15.7597 143.03 16.1659 143.391 16.6558V15.1279H146.118V25.8428H143.391V24.2762C143.042 24.779 142.559 25.1981 141.94 25.5333C141.334 25.8557 140.631 26.0168 139.832 26.0168C138.929 26.0168 138.104 25.7848 137.356 25.3206C136.621 24.8564 136.035 24.2052 135.596 23.3671C135.171 22.5161 134.958 21.5426 134.958 20.4467ZM143.391 20.4853C143.391 19.8278 143.262 19.2669 143.004 18.8027C142.746 18.3256 142.398 17.9646 141.959 17.7196C141.521 17.4617 141.05 17.3328 140.548 17.3328C140.045 17.3328 139.58 17.4553 139.155 17.7003C138.729 17.9452 138.381 18.3063 138.111 18.7833C137.853 19.2475 137.724 19.802 137.724 20.4467C137.724 21.0914 137.853 21.6587 138.111 22.1487C138.381 22.6257 138.729 22.9932 139.155 23.2511C139.593 23.509 140.058 23.6379 140.548 23.6379C141.05 23.6379 141.521 23.5154 141.959 23.2704C142.398 23.0126 142.746 22.6515 143.004 22.1873C143.262 21.7103 143.391 21.1429 143.391 20.4853ZM151.915 17.3521V22.5355C151.915 22.8965 151.999 23.1608 152.166 23.3285C152.347 23.4832 152.643 23.5605 153.056 23.5605H154.313V25.8428H152.611C150.329 25.8428 149.188 24.7339 149.188 22.5161V17.3521H147.911V15.1279H149.188V12.4782H151.915V15.1279H154.313V17.3521H151.915ZM166.221 20.2533C166.221 20.6401 166.195 20.9882 166.144 21.2977H158.311C158.375 22.0713 158.646 22.6773 159.123 23.1157C159.6 23.5541 160.187 23.7733 160.883 23.7733C161.889 23.7733 162.604 23.3414 163.03 22.4775H165.95C165.641 23.509 165.048 24.36 164.171 25.0305C163.294 25.688 162.218 26.0168 160.941 26.0168C159.91 26.0168 158.981 25.7912 158.156 25.3399C157.344 24.8757 156.705 24.2246 156.241 23.3865C155.79 22.5484 155.564 21.5813 155.564 20.4853C155.564 19.3765 155.79 18.403 156.241 17.5649C156.693 16.7268 157.324 16.0821 158.137 15.6308C158.949 15.1795 159.884 14.9538 160.941 14.9538C161.96 14.9538 162.869 15.173 163.668 15.6114C164.481 16.0498 165.106 16.6752 165.544 17.4875C165.996 18.2869 166.221 19.2088 166.221 20.2533ZM163.417 19.4796C163.404 18.7833 163.152 18.2289 162.662 17.8163C162.173 17.3908 161.573 17.1781 160.864 17.1781C160.193 17.1781 159.626 17.3844 159.162 17.797C158.71 18.1967 158.433 18.7576 158.33 19.4796H163.417ZM172.298 26.0168C171.421 26.0168 170.635 25.8621 169.938 25.5527C169.242 25.2303 168.688 24.7984 168.275 24.2568C167.875 23.7153 167.656 23.1157 167.617 22.4581H170.344C170.396 22.8707 170.596 23.2124 170.944 23.4832C171.305 23.754 171.75 23.8893 172.279 23.8893C172.794 23.8893 173.194 23.7862 173.478 23.5799C173.774 23.3736 173.923 23.1093 173.923 22.7869C173.923 22.4388 173.742 22.1809 173.381 22.0133C173.033 21.8328 172.472 21.6394 171.698 21.433C170.899 21.2396 170.241 21.0398 169.726 20.8335C169.223 20.6272 168.784 20.3113 168.41 19.8858C168.049 19.4603 167.869 18.8865 167.869 18.1644C167.869 17.5713 168.036 17.0298 168.372 16.5398C168.72 16.0498 169.21 15.663 169.842 15.3793C170.486 15.0957 171.241 14.9538 172.104 14.9538C173.381 14.9538 174.4 15.2762 175.16 15.9209C175.921 16.5527 176.34 17.4101 176.417 18.4932H173.826C173.787 18.0677 173.607 17.7325 173.284 17.4875C172.975 17.2296 172.556 17.1007 172.027 17.1007C171.537 17.1007 171.157 17.1909 170.886 17.3715C170.628 17.552 170.499 17.8034 170.499 18.1258C170.499 18.4868 170.68 18.764 171.041 18.9574C171.402 19.1379 171.963 19.3249 172.723 19.5183C173.497 19.7117 174.135 19.9116 174.638 20.1179C175.141 20.3242 175.573 20.6465 175.934 21.0849C176.308 21.5104 176.501 22.0777 176.514 22.7869C176.514 23.4058 176.34 23.9603 175.992 24.4502C175.657 24.9402 175.167 25.327 174.522 25.6107C173.89 25.8815 173.149 26.0168 172.298 26.0168Z" fill="white"/>
</svg>
