<svg width="135" height="15" viewBox="0 0 135 15" fill="none" xmlns="http://www.w3.org/2000/svg">
<path d="M-8.86705e-05 2.39997C0.159911 2.18237 0.358311 1.94237 0.595111 1.67997C0.838311 1.41757 1.13271 1.17437 1.47831 0.950373C1.82391 0.726374 2.22711 0.537573 2.68791 0.383973C3.14871 0.230374 3.68311 0.153574 4.29111 0.153574C4.98871 0.153574 5.61271 0.262374 6.16311 0.479973C6.71351 0.691173 7.18071 0.988773 7.56471 1.37277C7.94871 1.75037 8.23991 2.20477 8.43831 2.73597C8.64311 3.26077 8.74551 3.83997 8.74551 4.47357C8.74551 4.89597 8.69111 5.28957 8.58231 5.65437C8.47351 6.01277 8.33271 6.34557 8.15991 6.65277C7.98711 6.95997 7.79511 7.24477 7.58391 7.50717C7.37271 7.76957 7.16471 8.01277 6.95991 8.23677L3.59031 11.8464H9.11031V13.824H0.508711V12.192L5.36631 7.02717C5.74391 6.62397 6.03831 6.21757 6.24951 5.80797C6.46071 5.39197 6.56631 4.94397 6.56631 4.46397C6.56631 4.13117 6.51191 3.82397 6.40311 3.54237C6.30071 3.25437 6.14711 3.00797 5.94231 2.80317C5.74391 2.59197 5.50071 2.42877 5.21271 2.31357C4.92471 2.19837 4.59831 2.14077 4.23351 2.14077C3.89431 2.14077 3.59031 2.18237 3.32151 2.26557C3.05271 2.34237 2.80951 2.44797 2.59191 2.58237C2.38071 2.71677 2.18551 2.87677 2.00631 3.06237C1.82711 3.24157 1.65431 3.43037 1.48791 3.62877L-8.86705e-05 2.39997ZM21.017 4.38717C21.3242 4.38717 21.5994 4.40957 21.8426 4.45437C22.0922 4.49277 22.3322 4.55677 22.5626 4.64637L22.0826 6.63357C21.8714 6.52477 21.625 6.44157 21.3434 6.38397C21.0618 6.32637 20.7994 6.29757 20.5562 6.29757C20.2362 6.29757 19.9418 6.35197 19.673 6.46077C19.4042 6.56957 19.1738 6.72957 18.9818 6.94077C18.7898 7.15197 18.6394 7.41117 18.5306 7.71837C18.4218 8.02557 18.3674 8.37437 18.3674 8.76477V13.824H16.361V4.62717H18.3482V5.66397C18.6554 5.22237 19.0362 4.89917 19.4906 4.69437C19.945 4.48957 20.4538 4.38717 21.017 4.38717ZM27.7688 4.38717C28.4088 4.38717 28.9944 4.50557 29.5256 4.74237C30.0632 4.97277 30.5208 5.30237 30.8984 5.73117C31.2824 6.15357 31.58 6.66237 31.7912 7.25757C32.0088 7.84637 32.1176 8.49917 32.1176 9.21597C32.1176 9.34397 32.1144 9.47197 32.108 9.59997C32.1016 9.72797 32.092 9.84957 32.0792 9.96477H25.2824C25.3464 10.3808 25.4648 10.736 25.6376 11.0304C25.8104 11.3248 26.0184 11.568 26.2616 11.76C26.5048 11.9456 26.7768 12.0832 27.0776 12.1728C27.3784 12.2624 27.692 12.3072 28.0184 12.3072C28.4792 12.3072 28.94 12.224 29.4008 12.0576C29.868 11.8848 30.2936 11.6448 30.6776 11.3376L31.676 12.768C31.1128 13.248 30.5144 13.584 29.8808 13.776C29.2536 13.968 28.5912 14.064 27.8936 14.064C27.2024 14.064 26.5688 13.9488 25.9928 13.7184C25.4168 13.488 24.9208 13.1616 24.5048 12.7392C24.0888 12.3168 23.7656 11.808 23.5352 11.2128C23.3048 10.6176 23.1896 9.95517 23.1896 9.22557C23.1896 8.50877 23.3016 7.85277 23.5256 7.25757C23.7496 6.66237 24.0632 6.15357 24.4664 5.73117C24.8696 5.30237 25.3496 4.97277 25.9064 4.74237C26.4696 4.50557 27.0904 4.38717 27.7688 4.38717ZM27.7304 6.17277C27.372 6.17277 27.052 6.22717 26.7704 6.33597C26.4952 6.44477 26.2552 6.60157 26.0504 6.80637C25.852 7.00477 25.6888 7.24477 25.5608 7.52637C25.4328 7.80157 25.3432 8.10557 25.292 8.43837H30.0632C29.9544 7.72157 29.6984 7.16477 29.2952 6.76797C28.892 6.37117 28.3704 6.17277 27.7304 6.17277ZM40.471 6.93117C40.3302 6.84797 40.1574 6.76157 39.9526 6.67197C39.7478 6.57597 39.5206 6.48957 39.271 6.41277C39.0214 6.33597 38.7558 6.27197 38.4742 6.22077C38.199 6.16957 37.9174 6.14397 37.6294 6.14397C37.079 6.14397 36.6502 6.24637 36.343 6.45117C36.0422 6.64957 35.8918 6.91197 35.8918 7.23837C35.8918 7.39837 35.9302 7.53277 36.007 7.64157C36.0902 7.75037 36.199 7.83997 36.3334 7.91037C36.4678 7.98077 36.6278 8.03837 36.8134 8.08317C36.999 8.12157 37.1974 8.15677 37.4086 8.18877L38.359 8.33277C39.3638 8.47997 40.1478 8.77437 40.711 9.21597C41.2742 9.65117 41.5558 10.2624 41.5558 11.0496C41.5558 11.4912 41.4598 11.8976 41.2678 12.2688C41.0822 12.6336 40.8102 12.9504 40.4518 13.2192C40.0998 13.4816 39.6614 13.6864 39.1366 13.8336C38.6182 13.9808 38.0294 14.0544 37.3702 14.0544C37.1334 14.0544 36.8582 14.0384 36.5446 14.0064C36.231 13.9808 35.8982 13.9232 35.5462 13.8336C35.1942 13.7504 34.8358 13.632 34.471 13.4784C34.1062 13.3248 33.7574 13.1232 33.4246 12.8736L34.3558 11.3664C34.5222 11.4944 34.7014 11.616 34.8934 11.7312C35.0918 11.84 35.3126 11.9392 35.5558 12.0288C35.8054 12.112 36.0774 12.1792 36.3718 12.2304C36.6726 12.2816 37.0118 12.3072 37.3894 12.3072C38.0806 12.3072 38.6022 12.208 38.9542 12.0096C39.3062 11.8048 39.4822 11.5296 39.4822 11.184C39.4822 10.9216 39.3542 10.7072 39.0982 10.5408C38.8422 10.368 38.439 10.2432 37.8886 10.1664L36.9286 10.0416C35.9046 9.90077 35.127 9.60317 34.5958 9.14877C34.071 8.68797 33.8086 8.08637 33.8086 7.34397C33.8086 6.88957 33.895 6.47997 34.0678 6.11517C34.247 5.75037 34.4998 5.44317 34.8262 5.19357C35.159 4.93757 35.559 4.74237 36.0262 4.60797C36.4934 4.46717 37.0214 4.39677 37.6102 4.39677C38.3334 4.39677 39.015 4.48317 39.655 4.65597C40.295 4.82237 40.855 5.05917 41.335 5.36637L40.471 6.93117ZM51.9691 9.92637C51.9691 10.656 51.8475 11.2832 51.6043 11.808C51.3611 12.3328 51.0411 12.7616 50.6443 13.0944C50.2475 13.4272 49.7931 13.6704 49.2811 13.824C48.7691 13.984 48.2443 14.064 47.7067 14.064C47.1691 14.064 46.6443 13.984 46.1323 13.824C45.6203 13.6704 45.1627 13.4272 44.7595 13.0944C44.3627 12.7616 44.0427 12.3328 43.7995 11.808C43.5627 11.2832 43.4443 10.656 43.4443 9.92637V4.62717H45.4603V9.74397C45.4603 10.1856 45.5179 10.5632 45.6331 10.8768C45.7483 11.184 45.9051 11.4336 46.1035 11.6256C46.3083 11.8176 46.5483 11.9584 46.8235 12.048C47.0987 12.1312 47.3931 12.1728 47.7067 12.1728C48.0203 12.1728 48.3147 12.1312 48.5899 12.048C48.8651 11.9584 49.1019 11.8176 49.3003 11.6256C49.5051 11.4336 49.6651 11.184 49.7803 10.8768C49.8955 10.5632 49.9531 10.1856 49.9531 9.74397V4.62717H51.9691V9.92637ZM56.6473 13.824H54.6313V-2.64893e-05H56.6473V13.824ZM65.6723 6.45117H62.1491V10.4544C62.1491 10.7616 62.1875 11.024 62.2643 11.2416C62.3411 11.4592 62.4435 11.6384 62.5715 11.7792C62.7059 11.9136 62.8595 12.0128 63.0323 12.0768C63.2115 12.1408 63.4035 12.1728 63.6083 12.1728C63.9219 12.1728 64.2387 12.112 64.5587 11.9904C64.8851 11.8688 65.1859 11.7216 65.4611 11.5488L66.2579 13.152C65.8867 13.4016 65.4675 13.616 65.0003 13.7952C64.5395 13.9744 64.0179 14.064 63.4355 14.064C62.3923 14.064 61.5795 13.776 60.9971 13.2C60.4211 12.6176 60.1331 11.7152 60.1331 10.4928V6.45117H58.2995V4.62717H60.1331V1.84317H62.1491V4.62717H65.6723V6.45117ZM74.5453 13.824H72.5293V4.62717H74.5453V13.824ZM73.5277 0.0287737C73.7261 0.0287737 73.9117 0.0671736 74.0845 0.143973C74.2573 0.214374 74.4077 0.313574 74.5357 0.441574C74.6637 0.569573 74.7629 0.719973 74.8333 0.892773C74.9101 1.06557 74.9485 1.25117 74.9485 1.44957C74.9485 1.64797 74.9101 1.83357 74.8333 2.00637C74.7629 2.17917 74.6637 2.32957 74.5357 2.45757C74.4077 2.57917 74.2573 2.67517 74.0845 2.74557C73.9117 2.81597 73.7261 2.85117 73.5277 2.85117C73.3293 2.85117 73.1437 2.81597 72.9709 2.74557C72.7981 2.67517 72.6477 2.57917 72.5197 2.45757C72.3981 2.32957 72.3021 2.17917 72.2317 2.00637C72.1613 1.83357 72.1261 1.64797 72.1261 1.44957C72.1261 1.25117 72.1613 1.06557 72.2317 0.892773C72.3021 0.719973 72.3981 0.569573 72.5197 0.441574C72.6477 0.313574 72.7981 0.214374 72.9709 0.143973C73.1437 0.0671736 73.3293 0.0287737 73.5277 0.0287737ZM82.1207 4.38717C82.6647 4.38717 83.1639 4.47677 83.6183 4.65597C84.0791 4.83517 84.4759 5.08797 84.8087 5.41437C85.1415 5.73437 85.3975 6.11837 85.5767 6.56637C85.7623 7.01437 85.8551 7.50717 85.8551 8.04477V13.824H83.8391V8.70717C83.8391 7.93277 83.6503 7.33757 83.2727 6.92157C82.9015 6.50557 82.3767 6.29757 81.6983 6.29757C81.3719 6.29757 81.0647 6.35197 80.7767 6.46077C80.4887 6.56317 80.2359 6.71677 80.0183 6.92157C79.8071 7.12637 79.6375 7.38237 79.5095 7.68957C79.3815 7.99037 79.3175 8.33597 79.3175 8.72637V13.824H77.3015V4.62717H79.2983V5.75037C79.4839 5.48157 79.6887 5.26077 79.9127 5.08797C80.1431 4.90877 80.3831 4.76797 80.6327 4.66557C80.8823 4.56317 81.1319 4.49277 81.3815 4.45437C81.6375 4.40957 81.8839 4.38717 82.1207 4.38717ZM99.4898 6.45117H95.9666V10.4544C95.9666 10.7616 96.005 11.024 96.0818 11.2416C96.1586 11.4592 96.261 11.6384 96.389 11.7792C96.5234 11.9136 96.677 12.0128 96.8498 12.0768C97.029 12.1408 97.221 12.1728 97.4258 12.1728C97.7394 12.1728 98.0562 12.112 98.3762 11.9904C98.7026 11.8688 99.0034 11.7216 99.2786 11.5488L100.075 13.152C99.7042 13.4016 99.285 13.616 98.8178 13.7952C98.357 13.9744 97.8354 14.064 97.253 14.064C96.2098 14.064 95.397 13.776 94.8146 13.2C94.2386 12.6176 93.9506 11.7152 93.9506 10.4928V6.45117H92.117V4.62717H93.9506V1.84317H95.9666V4.62717H99.4898V6.45117ZM105.837 4.38717C106.548 4.38717 107.204 4.51197 107.805 4.76157C108.413 5.00477 108.938 5.34397 109.38 5.77917C109.821 6.20797 110.167 6.71677 110.417 7.30557C110.666 7.89437 110.791 8.53437 110.791 9.22557C110.791 9.91677 110.666 10.5568 110.417 11.1456C110.167 11.7344 109.821 12.2464 109.38 12.6816C108.938 13.1104 108.413 13.4496 107.805 13.6992C107.204 13.9424 106.548 14.064 105.837 14.064C105.127 14.064 104.468 13.9424 103.86 13.6992C103.258 13.4496 102.737 13.1104 102.295 12.6816C101.86 12.2464 101.517 11.7344 101.268 11.1456C101.018 10.5568 100.893 9.91677 100.893 9.22557C100.893 8.53437 101.018 7.89437 101.268 7.30557C101.517 6.71677 101.86 6.20797 102.295 5.77917C102.737 5.34397 103.258 5.00477 103.86 4.76157C104.468 4.51197 105.127 4.38717 105.837 4.38717ZM105.837 6.27837C105.428 6.27837 105.047 6.35197 104.695 6.49917C104.343 6.63997 104.039 6.84157 103.783 7.10397C103.527 7.35997 103.325 7.67037 103.178 8.03517C103.031 8.39357 102.957 8.79037 102.957 9.22557C102.957 9.66077 103.031 10.0608 103.178 10.4256C103.325 10.784 103.527 11.0944 103.783 11.3568C104.039 11.6128 104.343 11.8144 104.695 11.9616C105.047 12.1024 105.428 12.1728 105.837 12.1728C106.247 12.1728 106.628 12.1024 106.98 11.9616C107.332 11.8144 107.636 11.6128 107.892 11.3568C108.154 11.0944 108.359 10.784 108.506 10.4256C108.653 10.0608 108.727 9.66077 108.727 9.22557C108.727 8.79037 108.653 8.39357 108.506 8.03517C108.359 7.67037 108.154 7.35997 107.892 7.10397C107.636 6.84157 107.332 6.63997 106.98 6.49917C106.628 6.35197 106.247 6.27837 105.837 6.27837ZM119.066 6.45117H115.542V10.4544C115.542 10.7616 115.581 11.024 115.658 11.2416C115.734 11.4592 115.837 11.6384 115.965 11.7792C116.099 11.9136 116.253 12.0128 116.426 12.0768C116.605 12.1408 116.797 12.1728 117.002 12.1728C117.315 12.1728 117.632 12.112 117.952 11.9904C118.278 11.8688 118.579 11.7216 118.854 11.5488L119.651 13.152C119.28 13.4016 118.861 13.616 118.394 13.7952C117.933 13.9744 117.411 14.064 116.829 14.064C115.786 14.064 114.973 13.776 114.39 13.2C113.814 12.6176 113.526 11.7152 113.526 10.4928V6.45117H111.693V4.62717H113.526V1.84317H115.542V4.62717H119.066V6.45117ZM129.964 13.824H127.957V12.72C127.637 13.1296 127.24 13.456 126.767 13.6992C126.293 13.9424 125.727 14.064 125.068 14.064C124.421 14.064 123.82 13.9456 123.263 13.7088C122.706 13.4656 122.22 13.1296 121.804 12.7008C121.388 12.272 121.061 11.7632 120.824 11.1744C120.588 10.5792 120.469 9.92957 120.469 9.22557C120.469 8.52157 120.588 7.87517 120.824 7.28637C121.061 6.69117 121.388 6.17917 121.804 5.75037C122.22 5.32157 122.706 4.98877 123.263 4.75197C123.82 4.50877 124.421 4.38717 125.068 4.38717C125.727 4.38717 126.293 4.51197 126.767 4.76157C127.24 5.00477 127.637 5.33117 127.957 5.74077V4.62717H129.964V13.824ZM125.308 6.27837C124.872 6.27837 124.482 6.35837 124.136 6.51837C123.797 6.67197 123.509 6.88317 123.272 7.15197C123.036 7.41437 122.853 7.72477 122.725 8.08317C122.597 8.44157 122.533 8.82237 122.533 9.22557C122.533 9.62877 122.597 10.0096 122.725 10.368C122.853 10.7264 123.036 11.04 123.272 11.3088C123.509 11.5712 123.797 11.7824 124.136 11.9424C124.482 12.096 124.872 12.1728 125.308 12.1728C125.724 12.1728 126.101 12.0992 126.44 11.952C126.78 11.7984 127.071 11.5904 127.314 11.328C127.557 11.0656 127.746 10.7552 127.88 10.3968C128.015 10.0384 128.082 9.64797 128.082 9.22557C128.082 8.80317 128.015 8.41277 127.88 8.05437C127.746 7.69597 127.557 7.38557 127.314 7.12317C127.071 6.86077 126.78 6.65597 126.44 6.50877C126.101 6.35517 125.724 6.27837 125.308 6.27837ZM134.745 13.824H132.729V-2.64893e-05H134.745V13.824Z" fill="black"/>
</svg>
