<svg width="60" height="60" viewBox="0 0 60 60" fill="none" xmlns="http://www.w3.org/2000/svg">
<g clip-path="url(#clip0_738_21621)">
<rect width="60" height="60" rx="30" fill="#141413"/>
<g clip-path="url(#clip1_738_21621)">
<rect width="60" height="60" rx="30" fill="#141413"/>
<rect x="1.80811" y="6.9231" width="170.615" height="46.1538" rx="20" fill="#141413"/>
<path d="M31.7726 42.5309C31.602 42.9747 30.9741 42.9747 30.8034 42.5309L27.8453 34.8396C27.7926 34.7025 27.6842 34.5941 27.5471 34.5414L19.8558 31.5833C19.412 31.4126 19.412 30.7847 19.8558 30.6141L27.5471 27.656C27.6842 27.6033 27.7926 27.4949 27.8453 27.3578L30.8034 19.6665C30.9741 19.2227 31.602 19.2227 31.7726 19.6665L34.7307 27.3578C34.7834 27.4949 34.8918 27.6033 35.0289 27.656L42.7202 30.6141C43.164 30.7847 43.164 31.4126 42.7202 31.5833L35.0289 34.5414C34.8918 34.5941 34.7834 34.7025 34.7307 34.8396L31.7726 42.5309Z" fill="#FF671B"/>
<path d="M20.7482 25.3591C20.5799 25.8038 19.9521 25.8073 19.779 25.3644L18.8918 23.0947C18.8383 22.9578 18.7293 22.85 18.5919 22.7981L16.3126 21.9357C15.8679 21.7675 15.8644 21.1396 16.3073 20.9665L18.577 20.0793C18.7139 20.0258 18.8216 19.9168 18.8736 19.7794L19.736 17.5001C19.9042 17.0554 20.5321 17.0519 20.7052 17.4948L21.5924 19.7645C21.6459 19.9014 21.7549 20.0092 21.8923 20.0612L24.1716 20.9235C24.6163 21.0918 24.6198 21.7196 24.1769 21.8927L21.9071 22.7799C21.7703 22.8334 21.6625 22.9424 21.6105 23.0798L20.7482 25.3591Z" fill="#D22A2F"/>
</g>
</g>
<defs>
<clipPath id="clip0_738_21621">
<rect width="60" height="60" rx="30" fill="white"/>
</clipPath>
<clipPath id="clip1_738_21621">
<rect width="60" height="60" rx="30" fill="white"/>
</clipPath>
</defs>
</svg>
