<svg width="144" height="38" viewBox="0 0 144 38" fill="none" xmlns="http://www.w3.org/2000/svg">
<circle cx="19.0063" cy="19.0654" r="10.7119" fill="white"/>
<circle cx="19.0062" cy="19.0653" r="17.8531" stroke="white" stroke-width="1.42825"/>
<path d="M47.1769 18.7961C47.1769 17.468 47.4735 16.2818 48.0666 15.2374C48.6726 14.1801 49.4914 13.3613 50.5229 12.7811C51.5673 12.188 52.7342 11.8914 54.0236 11.8914C55.5322 11.8914 56.8538 12.2782 57.9885 13.0519C59.1232 13.8255 59.9161 14.8957 60.3674 16.2625H57.2535C56.9441 15.6178 56.5057 15.1342 55.9384 14.8119C55.3839 14.4895 54.7392 14.3284 54.0043 14.3284C53.2177 14.3284 52.515 14.5153 51.8961 14.8893C51.2901 15.2503 50.813 15.766 50.4649 16.4365C50.1296 17.107 49.962 17.8935 49.962 18.7961C49.962 19.6858 50.1296 20.4723 50.4649 21.1557C50.813 21.8262 51.2901 22.3484 51.8961 22.7223C52.515 23.0833 53.2177 23.2639 54.0043 23.2639C54.7392 23.2639 55.3839 23.1027 55.9384 22.7803C56.5057 22.4451 56.9441 21.9551 57.2535 21.3104H60.3674C59.9161 22.6901 59.1232 23.7667 57.9885 24.5404C56.8667 25.3011 55.5451 25.6815 54.0236 25.6815C52.7342 25.6815 51.5673 25.3914 50.5229 24.8111C49.4914 24.218 48.6726 23.3992 48.0666 22.3548C47.4735 21.3104 47.1769 20.1242 47.1769 18.7961ZM67.438 25.7395C66.4065 25.7395 65.4782 25.5139 64.6529 25.0626C63.8277 24.5984 63.1766 23.9472 62.6995 23.1091C62.2353 22.271 62.0032 21.304 62.0032 20.208C62.0032 19.112 62.2418 18.145 62.7189 17.3069C63.2088 16.4688 63.8729 15.8241 64.711 15.3728C65.5491 14.9086 66.4839 14.6765 67.5154 14.6765C68.5469 14.6765 69.4817 14.9086 70.3198 15.3728C71.1579 15.8241 71.8155 16.4688 72.2926 17.3069C72.7826 18.145 73.0275 19.112 73.0275 20.208C73.0275 21.304 72.7761 22.271 72.2733 23.1091C71.7833 23.9472 71.1128 24.5984 70.2618 25.0626C69.4237 25.5139 68.4824 25.7395 67.438 25.7395ZM67.438 23.3799C67.928 23.3799 68.3857 23.2639 68.8112 23.0318C69.2496 22.7868 69.5978 22.4258 69.8556 21.9487C70.1135 21.4716 70.2425 20.8914 70.2425 20.208C70.2425 19.1894 69.9717 18.4093 69.4301 17.8678C68.9015 17.3133 68.2503 17.0361 67.4767 17.0361C66.7031 17.0361 66.0519 17.3133 65.5233 17.8678C65.0075 18.4093 64.7496 19.1894 64.7496 20.208C64.7496 21.2266 65.0011 22.0132 65.5039 22.5676C66.0197 23.1091 66.6644 23.3799 67.438 23.3799ZM77.7215 11.2532V25.5654H75.0138V11.2532H77.7215ZM85.1546 25.7395C84.1231 25.7395 83.1947 25.5139 82.3695 25.0626C81.5443 24.5984 80.8931 23.9472 80.4161 23.1091C79.9519 22.271 79.7198 21.304 79.7198 20.208C79.7198 19.112 79.9583 18.145 80.4354 17.3069C80.9254 16.4688 81.5894 15.8241 82.4275 15.3728C83.2656 14.9086 84.2004 14.6765 85.232 14.6765C86.2635 14.6765 87.1983 14.9086 88.0364 15.3728C88.8745 15.8241 89.5321 16.4688 90.0092 17.3069C90.4991 18.145 90.7441 19.112 90.7441 20.208C90.7441 21.304 90.4927 22.271 89.9898 23.1091C89.4998 23.9472 88.8294 24.5984 87.9784 25.0626C87.1403 25.5139 86.199 25.7395 85.1546 25.7395ZM85.1546 23.3799C85.6446 23.3799 86.1023 23.2639 86.5278 23.0318C86.9662 22.7868 87.3143 22.4258 87.5722 21.9487C87.8301 21.4716 87.959 20.8914 87.959 20.208C87.959 19.1894 87.6882 18.4093 87.1467 17.8678C86.6181 17.3133 85.9669 17.0361 85.1933 17.0361C84.4196 17.0361 83.7685 17.3133 83.2398 17.8678C82.7241 18.4093 82.4662 19.1894 82.4662 20.208C82.4662 21.2266 82.7176 22.0132 83.2205 22.5676C83.7363 23.1091 84.381 23.3799 85.1546 23.3799ZM106.037 14.6958C107.352 14.6958 108.409 15.102 109.209 15.9143C110.021 16.7137 110.427 17.8355 110.427 19.2796V25.5654H107.72V19.6471C107.72 18.809 107.507 18.1708 107.081 17.7324C106.656 17.2811 106.076 17.0554 105.341 17.0554C104.606 17.0554 104.019 17.2811 103.581 17.7324C103.155 18.1708 102.942 18.809 102.942 19.6471V25.5654H100.235V19.6471C100.235 18.809 100.022 18.1708 99.5963 17.7324C99.1708 17.2811 98.5906 17.0554 97.8557 17.0554C97.1078 17.0554 96.5147 17.2811 96.0763 17.7324C95.6508 18.1708 95.4381 18.809 95.4381 19.6471V25.5654H92.7303V14.8506H95.4381V16.1464C95.7862 15.6951 96.231 15.3405 96.7726 15.0827C97.327 14.8248 97.933 14.6958 98.5906 14.6958C99.4287 14.6958 100.177 14.8764 100.834 15.2374C101.492 15.5855 102.001 16.0884 102.362 16.746C102.71 16.1271 103.213 15.6307 103.871 15.2567C104.541 14.8828 105.263 14.6958 106.037 14.6958ZM115.704 16.4172C116.053 15.9014 116.53 15.4824 117.136 15.16C117.755 14.8377 118.457 14.6765 119.244 14.6765C120.159 14.6765 120.985 14.9021 121.719 15.3534C122.467 15.8047 123.054 16.4494 123.479 17.2875C123.918 18.1127 124.137 19.0733 124.137 20.1693C124.137 21.2653 123.918 22.2388 123.479 23.0898C123.054 23.9279 122.467 24.579 121.719 25.0432C120.985 25.5074 120.159 25.7395 119.244 25.7395C118.444 25.7395 117.742 25.5848 117.136 25.2753C116.543 24.953 116.065 24.5404 115.704 24.0375V25.5654H112.997V11.2532H115.704V16.4172ZM121.371 20.1693C121.371 19.5246 121.236 18.9702 120.965 18.506C120.707 18.0289 120.359 17.6679 119.921 17.4229C119.495 17.1779 119.031 17.0554 118.528 17.0554C118.038 17.0554 117.574 17.1844 117.136 17.4423C116.71 17.6872 116.362 18.0483 116.091 18.5253C115.833 19.0024 115.704 19.5633 115.704 20.208C115.704 20.8527 115.833 21.4136 116.091 21.8907C116.362 22.3677 116.71 22.7352 117.136 22.9931C117.574 23.2381 118.038 23.3606 118.528 23.3606C119.031 23.3606 119.495 23.2316 119.921 22.9737C120.359 22.7159 120.707 22.3484 120.965 21.8713C121.236 21.3942 121.371 20.8269 121.371 20.1693ZM127.478 13.5741C127.001 13.5741 126.601 13.4258 126.279 13.1292C125.969 12.8198 125.815 12.4394 125.815 11.9881C125.815 11.5368 125.969 11.1629 126.279 10.8663C126.601 10.5569 127.001 10.4022 127.478 10.4022C127.955 10.4022 128.348 10.5569 128.658 10.8663C128.98 11.1629 129.141 11.5368 129.141 11.9881C129.141 12.4394 128.98 12.8198 128.658 13.1292C128.348 13.4258 127.955 13.5741 127.478 13.5741ZM128.812 14.8506V25.5654H126.105V14.8506H128.812ZM130.791 20.1693C130.791 19.0862 131.004 18.1256 131.43 17.2875C131.868 16.4494 132.455 15.8047 133.19 15.3534C133.938 14.9021 134.769 14.6765 135.685 14.6765C136.484 14.6765 137.18 14.8377 137.773 15.16C138.379 15.4824 138.863 15.8885 139.224 16.3785V14.8506H141.951V25.5654H139.224V23.9988C138.876 24.5017 138.392 24.9207 137.773 25.256C137.167 25.5783 136.465 25.7395 135.665 25.7395C134.763 25.7395 133.938 25.5074 133.19 25.0432C132.455 24.579 131.868 23.9279 131.43 23.0898C131.004 22.2388 130.791 21.2653 130.791 20.1693ZM139.224 20.208C139.224 19.5504 139.095 18.9895 138.837 18.5253C138.579 18.0483 138.231 17.6872 137.793 17.4423C137.354 17.1844 136.884 17.0554 136.381 17.0554C135.878 17.0554 135.414 17.1779 134.988 17.4229C134.563 17.6679 134.215 18.0289 133.944 18.506C133.686 18.9702 133.557 19.5246 133.557 20.1693C133.557 20.814 133.686 21.3813 133.944 21.8713C134.215 22.3484 134.563 22.7159 134.988 22.9737C135.427 23.2316 135.891 23.3606 136.381 23.3606C136.884 23.3606 137.354 23.2381 137.793 22.9931C138.231 22.7352 138.579 22.3742 138.837 21.91C139.095 21.4329 139.224 20.8656 139.224 20.208Z" fill="white"/>
</svg>
