<svg width="170" height="50" viewBox="0 0 170 50" fill="none" xmlns="http://www.w3.org/2000/svg">
<circle cx="24.9601" cy="24.9596" r="14.4" fill="white"/>
<circle cx="24.96" cy="24.96" r="24" stroke="white" stroke-width="1.92"/>
<path d="M62.8299 25.36C62.8299 23.5746 63.2286 21.98 64.0259 20.576C64.8406 19.1546 65.9413 18.054 67.3279 17.274C68.7319 16.4766 70.3006 16.078 72.0339 16.078C74.0619 16.078 75.8386 16.598 77.3639 17.638C78.8893 18.678 79.9553 20.1166 80.5619 21.954H76.3759C75.9599 21.0873 75.3706 20.4373 74.6079 20.004C73.8626 19.5706 72.9959 19.354 72.0079 19.354C70.9506 19.354 70.0059 19.6053 69.1739 20.108C68.3593 20.5933 67.7179 21.2866 67.2499 22.188C66.7993 23.0893 66.5739 24.1466 66.5739 25.36C66.5739 26.556 66.7993 27.6133 67.2499 28.532C67.7179 29.4333 68.3593 30.1353 69.1739 30.638C70.0059 31.1233 70.9506 31.366 72.0079 31.366C72.9959 31.366 73.8626 31.1493 74.6079 30.716C75.3706 30.2653 75.9599 29.6066 76.3759 28.74H80.5619C79.9553 30.5946 78.8893 32.042 77.3639 33.082C75.8559 34.1046 74.0793 34.616 72.0339 34.616C70.3006 34.616 68.7319 34.226 67.3279 33.446C65.9413 32.6486 64.8406 31.548 64.0259 30.144C63.2286 28.74 62.8299 27.1453 62.8299 25.36ZM82.735 27.206C82.735 25.75 83.021 24.4586 83.593 23.332C84.1823 22.2053 84.971 21.3386 85.959 20.732C86.9643 20.1253 88.0823 19.822 89.313 19.822C90.3876 19.822 91.3236 20.0386 92.121 20.472C92.9356 20.9053 93.5856 21.4513 94.071 22.11V20.056H97.737V34.46H94.071V32.354C93.603 33.03 92.953 33.5933 92.121 34.044C91.3063 34.4773 90.3616 34.694 89.287 34.694C88.0736 34.694 86.9643 34.382 85.959 33.758C84.971 33.134 84.1823 32.2586 83.593 31.132C83.021 29.988 82.735 28.6793 82.735 27.206ZM94.071 27.258C94.071 26.374 93.8976 25.62 93.551 24.996C93.2043 24.3546 92.7363 23.8693 92.147 23.54C91.5576 23.1933 90.925 23.02 90.249 23.02C89.573 23.02 88.949 23.1846 88.377 23.514C87.805 23.8433 87.337 24.3286 86.973 24.97C86.6263 25.594 86.453 26.3393 86.453 27.206C86.453 28.0726 86.6263 28.8353 86.973 29.494C87.337 30.1353 87.805 30.6293 88.377 30.976C88.9663 31.3226 89.5903 31.496 90.249 31.496C90.925 31.496 91.5576 31.3313 92.147 31.002C92.7363 30.6553 93.2043 30.17 93.551 29.546C93.8976 28.9046 94.071 28.142 94.071 27.258ZM109.274 19.848C110.99 19.848 112.377 20.394 113.434 21.486C114.491 22.5606 115.02 24.0686 115.02 26.01V34.46H111.38V26.504C111.38 25.36 111.094 24.4846 110.522 23.878C109.95 23.254 109.17 22.942 108.182 22.942C107.177 22.942 106.379 23.254 105.79 23.878C105.218 24.4846 104.932 25.36 104.932 26.504V34.46H101.292V20.056H104.932V21.85C105.417 21.226 106.033 20.7406 106.778 20.394C107.541 20.03 108.373 19.848 109.274 19.848ZM117.545 27.206C117.545 25.75 117.831 24.4586 118.403 23.332C118.993 22.2053 119.782 21.3386 120.77 20.732C121.775 20.1253 122.893 19.822 124.124 19.822C125.198 19.822 126.134 20.0386 126.932 20.472C127.746 20.9053 128.396 21.4513 128.882 22.11V20.056H132.548V34.46H128.882V32.354C128.414 33.03 127.764 33.5933 126.932 34.044C126.117 34.4773 125.172 34.694 124.098 34.694C122.884 34.694 121.775 34.382 120.77 33.758C119.782 33.134 118.993 32.2586 118.403 31.132C117.831 29.988 117.545 28.6793 117.545 27.206ZM128.882 27.258C128.882 26.374 128.708 25.62 128.362 24.996C128.015 24.3546 127.547 23.8693 126.958 23.54C126.368 23.1933 125.736 23.02 125.06 23.02C124.384 23.02 123.76 23.1846 123.188 23.514C122.616 23.8433 122.148 24.3286 121.784 24.97C121.437 25.594 121.264 26.3393 121.264 27.206C121.264 28.0726 121.437 28.8353 121.784 29.494C122.148 30.1353 122.616 30.6293 123.188 30.976C123.777 31.3226 124.401 31.496 125.06 31.496C125.736 31.496 126.368 31.3313 126.958 31.002C127.547 30.6553 128.015 30.17 128.362 29.546C128.708 28.9046 128.882 28.142 128.882 27.258ZM135.167 27.206C135.167 25.75 135.453 24.4586 136.025 23.332C136.614 22.2053 137.411 21.3386 138.417 20.732C139.422 20.1253 140.54 19.822 141.771 19.822C142.707 19.822 143.599 20.03 144.449 20.446C145.298 20.8446 145.974 21.382 146.477 22.058V15.22H150.169V34.46H146.477V32.328C146.026 33.0386 145.393 33.6106 144.579 34.044C143.764 34.4773 142.819 34.694 141.745 34.694C140.531 34.694 139.422 34.382 138.417 33.758C137.411 33.134 136.614 32.2586 136.025 31.132C135.453 29.988 135.167 28.6793 135.167 27.206ZM146.503 27.258C146.503 26.374 146.329 25.62 145.983 24.996C145.636 24.3546 145.168 23.8693 144.579 23.54C143.989 23.1933 143.357 23.02 142.681 23.02C142.005 23.02 141.381 23.1846 140.809 23.514C140.237 23.8433 139.769 24.3286 139.405 24.97C139.058 25.594 138.885 26.3393 138.885 27.206C138.885 28.0726 139.058 28.8353 139.405 29.494C139.769 30.1353 140.237 30.6293 140.809 30.976C141.398 31.3226 142.022 31.496 142.681 31.496C143.357 31.496 143.989 31.3313 144.579 31.002C145.168 30.6553 145.636 30.17 145.983 29.546C146.329 28.9046 146.503 28.142 146.503 27.258ZM152.788 27.206C152.788 25.75 153.074 24.4586 153.646 23.332C154.235 22.2053 155.024 21.3386 156.012 20.732C157.017 20.1253 158.135 19.822 159.366 19.822C160.44 19.822 161.376 20.0386 162.174 20.472C162.988 20.9053 163.638 21.4513 164.124 22.11V20.056H167.79V34.46H164.124V32.354C163.656 33.03 163.006 33.5933 162.174 34.044C161.359 34.4773 160.414 34.694 159.34 34.694C158.126 34.694 157.017 34.382 156.012 33.758C155.024 33.134 154.235 32.2586 153.646 31.132C153.074 29.988 152.788 28.6793 152.788 27.206ZM164.124 27.258C164.124 26.374 163.95 25.62 163.604 24.996C163.257 24.3546 162.789 23.8693 162.2 23.54C161.61 23.1933 160.978 23.02 160.302 23.02C159.626 23.02 159.002 23.1846 158.43 23.514C157.858 23.8433 157.39 24.3286 157.026 24.97C156.679 25.594 156.506 26.3393 156.506 27.206C156.506 28.0726 156.679 28.8353 157.026 29.494C157.39 30.1353 157.858 30.6293 158.43 30.976C159.019 31.3226 159.643 31.496 160.302 31.496C160.978 31.496 161.61 31.3313 162.2 31.002C162.789 30.6553 163.257 30.17 163.604 29.546C163.95 28.9046 164.124 28.142 164.124 27.258Z" fill="white"/>
</svg>
