<svg width="42" height="52" viewBox="0 0 42 52" fill="none" xmlns="http://www.w3.org/2000/svg">
<path d="M31.6364 26.0033C31.6344 22.0644 32.5172 18.1769 34.2179 14.636C35.9186 11.0952 38.3924 7.99418 41.4513 5.56862C37.6719 2.55477 33.1329 0.68053 28.3532 0.160126C23.5735 -0.360278 18.746 0.49415 14.4223 2.62575C10.0986 4.75735 6.45321 8.08012 3.90284 12.2143C1.35248 16.3484 0 21.1272 0 26.0043C0 30.8814 1.35248 35.6602 3.90284 39.7943C6.45321 43.9285 10.0986 47.2513 14.4223 49.3829C18.746 51.5145 23.5735 52.3689 28.3532 51.8485C33.1329 51.3281 37.6719 49.4538 41.4513 46.44C38.3923 44.0141 35.9184 40.9128 34.2177 37.3716C32.517 33.8304 31.6342 29.9425 31.6364 26.0033Z" fill="#EB001B"/>
</svg>
