<svg width="42" height="52" viewBox="0 0 42 52" fill="none" xmlns="http://www.w3.org/2000/svg">
<path d="M15.8808 51.997C10.1221 52.0067 4.528 50.0489 0 46.4391C3.00005 44.0458 5.44122 41.009 7.1486 37.5461C8.91294 33.9623 9.82606 30.0093 9.81492 26.0034C9.82595 21.9978 8.91282 18.0452 7.1486 14.4617C5.4411 10.9987 2.99996 7.9615 0 5.56773C4.94329 1.63142 11.1359 -0.332704 17.4088 0.0461407C23.6818 0.424985 29.601 3.12059 34.0491 7.62408C37.6351 11.2628 40.0761 15.8995 41.0629 20.9468C42.0496 25.9941 41.5378 31.2249 39.5922 35.9769C37.6465 40.7288 34.3546 44.788 30.1334 47.6404C25.9122 50.4928 20.9516 52.01 15.8798 52L15.8808 51.997ZM39.8338 42.1085H39.6502V41.1021H39.9109L40.2106 41.7955L40.5104 41.1021H40.7701V42.1085H40.5875V41.3458L40.3063 42.0035H40.111L39.8299 41.3468V42.1085H39.8338ZM39.1211 42.1085H38.9395V41.2705H38.6056V41.1001H39.4559V41.2705H39.122L39.1211 42.1085Z" fill="#F79E1B"/>
</svg>
