<svg width="42" height="52" viewBox="0 0 42 52" fill="none" xmlns="http://www.w3.org/2000/svg">
<path d="M31.6364 25.9916C31.6344 22.0527 32.5172 18.1652 34.2179 14.6243C35.9186 11.0835 38.3924 7.98246 41.4513 5.5569C37.6719 2.54305 33.1329 0.668811 28.3532 0.148407C23.5735 -0.371997 18.746 0.482431 14.4223 2.61403C10.0986 4.74563 6.45321 8.0684 3.90284 12.2026C1.35248 16.3367 0 21.1155 0 25.9926C0 30.8697 1.35248 35.6485 3.90284 39.7826C6.45321 43.9168 10.0986 47.2395 14.4223 49.3711C18.746 51.5027 23.5735 52.3572 28.3532 51.8368C33.1329 51.3164 37.6719 49.4421 41.4513 46.4283C38.3923 44.0024 35.9184 40.9011 34.2177 37.3599C32.517 33.8187 31.6342 29.9308 31.6364 25.9916Z" fill="#EB001B"/>
</svg>
