<svg width="155" height="50" viewBox="0 0 155 50" fill="none" xmlns="http://www.w3.org/2000/svg">
<path d="M21.58 16.312V34.46H17.94V22.656L13.078 34.46H10.322L5.434 22.656V34.46H1.794V16.312H5.928L11.7 29.806L17.472 16.312H21.58ZM38.5688 26.946C38.5688 27.466 38.5341 27.934 38.4648 28.35H27.9348C28.0214 29.39 28.3854 30.2046 29.0268 30.794C29.6681 31.3833 30.4568 31.678 31.3928 31.678C32.7448 31.678 33.7068 31.0973 34.2788 29.936H38.2048C37.7888 31.3226 36.9914 32.4666 35.8128 33.368C34.6341 34.252 33.1868 34.694 31.4708 34.694C30.0841 34.694 28.8361 34.3906 27.7268 33.784C26.6348 33.16 25.7768 32.2846 25.1528 31.158C24.5461 30.0313 24.2428 28.7313 24.2428 27.258C24.2428 25.7673 24.5461 24.4586 25.1528 23.332C25.7594 22.2053 26.6088 21.3386 27.7008 20.732C28.7928 20.1253 30.0494 19.822 31.4708 19.822C32.8401 19.822 34.0621 20.1166 35.1368 20.706C36.2288 21.2953 37.0694 22.136 37.6588 23.228C38.2654 24.3026 38.5688 25.542 38.5688 26.946ZM34.7988 25.906C34.7814 24.97 34.4434 24.2246 33.7848 23.67C33.1261 23.098 32.3201 22.812 31.3668 22.812C30.4654 22.812 29.7028 23.0893 29.0788 23.644C28.4721 24.1813 28.0994 24.9353 27.9608 25.906H34.7988ZM49.1816 34.46L46.2176 29.988L43.5916 34.46H39.6916L44.3976 27.232L39.6396 20.056H43.7476L46.6856 24.502L49.3376 20.056H53.2376L48.5056 27.232L53.2896 34.46H49.1816ZM57.1127 18.34C56.4713 18.34 55.934 18.1406 55.5007 17.742C55.0847 17.326 54.8767 16.8146 54.8767 16.208C54.8767 15.6013 55.0847 15.0986 55.5007 14.7C55.934 14.284 56.4713 14.076 57.1127 14.076C57.754 14.076 58.2827 14.284 58.6987 14.7C59.132 15.0986 59.3487 15.6013 59.3487 16.208C59.3487 16.8146 59.132 17.326 58.6987 17.742C58.2827 18.1406 57.754 18.34 57.1127 18.34ZM58.9067 20.056V34.46H55.2667V20.056H58.9067ZM61.567 27.258C61.567 25.7673 61.8703 24.4673 62.477 23.358C63.0837 22.2313 63.9243 21.3646 64.999 20.758C66.0737 20.134 67.3043 19.822 68.691 19.822C70.4763 19.822 71.9497 20.2726 73.111 21.174C74.2897 22.058 75.0783 23.306 75.477 24.918H71.551C71.343 24.294 70.9877 23.8086 70.485 23.462C69.9997 23.098 69.393 22.916 68.665 22.916C67.625 22.916 66.8017 23.2973 66.195 24.06C65.5883 24.8053 65.285 25.8713 65.285 27.258C65.285 28.6273 65.5883 29.6933 66.195 30.456C66.8017 31.2013 67.625 31.574 68.665 31.574C70.1383 31.574 71.1003 30.9153 71.551 29.598H75.477C75.0783 31.158 74.2897 32.3973 73.111 33.316C71.9323 34.2346 70.459 34.694 68.691 34.694C67.3043 34.694 66.0737 34.3906 64.999 33.784C63.9243 33.16 63.0837 32.2933 62.477 31.184C61.8703 30.0573 61.567 28.7486 61.567 27.258ZM84.5396 34.694C83.1529 34.694 81.9049 34.3906 80.7956 33.784C79.6863 33.16 78.8109 32.2846 78.1696 31.158C77.5456 30.0313 77.2336 28.7313 77.2336 27.258C77.2336 25.7846 77.5543 24.4846 78.1956 23.358C78.8543 22.2313 79.7469 21.3646 80.8736 20.758C82.0003 20.134 83.2569 19.822 84.6436 19.822C86.0303 19.822 87.2869 20.134 88.4136 20.758C89.5403 21.3646 90.4243 22.2313 91.0656 23.358C91.7243 24.4846 92.0536 25.7846 92.0536 27.258C92.0536 28.7313 91.7156 30.0313 91.0396 31.158C90.3809 32.2846 89.4796 33.16 88.3356 33.784C87.2089 34.3906 85.9436 34.694 84.5396 34.694ZM84.5396 31.522C85.1983 31.522 85.8136 31.366 86.3856 31.054C86.9749 30.7246 87.4429 30.2393 87.7896 29.598C88.1363 28.9566 88.3096 28.1766 88.3096 27.258C88.3096 25.8886 87.9456 24.84 87.2176 24.112C86.5069 23.3666 85.6316 22.994 84.5916 22.994C83.5516 22.994 82.6763 23.3666 81.9656 24.112C81.2723 24.84 80.9256 25.8886 80.9256 27.258C80.9256 28.6273 81.2636 29.6846 81.9396 30.43C82.6329 31.158 83.4996 31.522 84.5396 31.522Z" fill="white"/>
<circle cx="129.96" cy="24.9596" r="14.4" fill="white"/>
<circle cx="129.96" cy="24.96" r="24" stroke="white" stroke-width="1.92"/>
</svg>
