<svg width="239" height="50" viewBox="0 0 239 50" fill="none" xmlns="http://www.w3.org/2000/svg">
<circle cx="24.9601" cy="24.9596" r="14.4" fill="white"/>
<circle cx="24.96" cy="24.96" r="24" stroke="white" stroke-width="1.92"/>
<path d="M67.3019 16.312V27.544C67.3019 28.7746 67.6226 29.7193 68.2639 30.378C68.9053 31.0193 69.8066 31.34 70.9679 31.34C72.1466 31.34 73.0566 31.0193 73.6979 30.378C74.3393 29.7193 74.6599 28.7746 74.6599 27.544V16.312H78.3259V27.518C78.3259 29.0606 77.9879 30.3693 77.3119 31.444C76.6533 32.5013 75.7606 33.2986 74.6339 33.836C73.5246 34.3733 72.2853 34.642 70.9159 34.642C69.5639 34.642 68.3333 34.3733 67.2239 33.836C66.1319 33.2986 65.2653 32.5013 64.6239 31.444C63.9826 30.3693 63.6619 29.0606 63.6619 27.518V16.312H67.3019ZM89.8248 19.848C91.5408 19.848 92.9275 20.394 93.9848 21.486C95.0422 22.5606 95.5708 24.0686 95.5708 26.01V34.46H91.9308V26.504C91.9308 25.36 91.6448 24.4846 91.0728 23.878C90.5008 23.254 89.7208 22.942 88.7328 22.942C87.7275 22.942 86.9302 23.254 86.3408 23.878C85.7688 24.4846 85.4828 25.36 85.4828 26.504V34.46H81.8428V20.056H85.4828V21.85C85.9682 21.226 86.5835 20.7406 87.3288 20.394C88.0915 20.03 88.9235 19.848 89.8248 19.848ZM100.878 18.34C100.237 18.34 99.6996 18.1406 99.2663 17.742C98.8503 17.326 98.6423 16.8146 98.6423 16.208C98.6423 15.6013 98.8503 15.0986 99.2663 14.7C99.6996 14.284 100.237 14.076 100.878 14.076C101.52 14.076 102.048 14.284 102.464 14.7C102.898 15.0986 103.114 15.6013 103.114 16.208C103.114 16.8146 102.898 17.326 102.464 17.742C102.048 18.1406 101.52 18.34 100.878 18.34ZM102.672 20.056V34.46H99.0323V20.056H102.672ZM110.507 23.046V30.014C110.507 30.4993 110.619 30.8546 110.845 31.08C111.087 31.288 111.486 31.392 112.041 31.392H113.731V34.46H111.443C108.375 34.46 106.841 32.9693 106.841 29.988V23.046H105.125V20.056H106.841V16.494H110.507V20.056H113.731V23.046H110.507ZM129.739 26.946C129.739 27.466 129.704 27.934 129.635 28.35H119.105C119.191 29.39 119.555 30.2046 120.197 30.794C120.838 31.3833 121.627 31.678 122.563 31.678C123.915 31.678 124.877 31.0973 125.449 29.936H129.375C128.959 31.3226 128.161 32.4666 126.983 33.368C125.804 34.252 124.357 34.694 122.641 34.694C121.254 34.694 120.006 34.3906 118.897 33.784C117.805 33.16 116.947 32.2846 116.323 31.158C115.716 30.0313 115.413 28.7313 115.413 27.258C115.413 25.7673 115.716 24.4586 116.323 23.332C116.929 22.2053 117.779 21.3386 118.871 20.732C119.963 20.1253 121.219 19.822 122.641 19.822C124.01 19.822 125.232 20.1166 126.307 20.706C127.399 21.2953 128.239 22.136 128.829 23.228C129.435 24.3026 129.739 25.542 129.739 26.946ZM125.969 25.906C125.951 24.97 125.613 24.2246 124.955 23.67C124.296 23.098 123.49 22.812 122.537 22.812C121.635 22.812 120.873 23.0893 120.249 23.644C119.642 24.1813 119.269 24.9353 119.131 25.906H125.969ZM131.46 27.206C131.46 25.75 131.746 24.4586 132.318 23.332C132.907 22.2053 133.704 21.3386 134.71 20.732C135.715 20.1253 136.833 19.822 138.064 19.822C139 19.822 139.892 20.03 140.742 20.446C141.591 20.8446 142.267 21.382 142.77 22.058V15.22H146.462V34.46H142.77V32.328C142.319 33.0386 141.686 33.6106 140.872 34.044C140.057 34.4773 139.112 34.694 138.038 34.694C136.824 34.694 135.715 34.382 134.71 33.758C133.704 33.134 132.907 32.2586 132.318 31.132C131.746 29.988 131.46 28.6793 131.46 27.206ZM142.796 27.258C142.796 26.374 142.622 25.62 142.276 24.996C141.929 24.3546 141.461 23.8693 140.872 23.54C140.282 23.1933 139.65 23.02 138.974 23.02C138.298 23.02 137.674 23.1846 137.102 23.514C136.53 23.8433 136.062 24.3286 135.698 24.97C135.351 25.594 135.178 26.3393 135.178 27.206C135.178 28.0726 135.351 28.8353 135.698 29.494C136.062 30.1353 136.53 30.6293 137.102 30.976C137.691 31.3226 138.315 31.496 138.974 31.496C139.65 31.496 140.282 31.3313 140.872 31.002C141.461 30.6553 141.929 30.17 142.276 29.546C142.622 28.9046 142.796 28.142 142.796 27.258ZM162.478 34.642C161.213 34.642 160.069 34.4253 159.046 33.992C158.041 33.5586 157.243 32.9346 156.654 32.12C156.065 31.3053 155.761 30.3433 155.744 29.234H159.644C159.696 29.9793 159.956 30.5686 160.424 31.002C160.909 31.4353 161.568 31.652 162.4 31.652C163.249 31.652 163.917 31.4526 164.402 31.054C164.887 30.638 165.13 30.1006 165.13 29.442C165.13 28.9046 164.965 28.4626 164.636 28.116C164.307 27.7693 163.891 27.5006 163.388 27.31C162.903 27.102 162.227 26.8766 161.36 26.634C160.181 26.2873 159.219 25.9493 158.474 25.62C157.746 25.2733 157.113 24.762 156.576 24.086C156.056 23.3926 155.796 22.474 155.796 21.33C155.796 20.2553 156.065 19.3193 156.602 18.522C157.139 17.7246 157.893 17.118 158.864 16.702C159.835 16.2686 160.944 16.052 162.192 16.052C164.064 16.052 165.581 16.5113 166.742 17.43C167.921 18.3313 168.571 19.5966 168.692 21.226H164.688C164.653 20.602 164.385 20.0906 163.882 19.692C163.397 19.276 162.747 19.068 161.932 19.068C161.221 19.068 160.649 19.25 160.216 19.614C159.8 19.978 159.592 20.5066 159.592 21.2C159.592 21.6853 159.748 22.0926 160.06 22.422C160.389 22.734 160.788 22.994 161.256 23.202C161.741 23.3926 162.417 23.618 163.284 23.878C164.463 24.2246 165.425 24.5713 166.17 24.918C166.915 25.2646 167.557 25.7846 168.094 26.478C168.631 27.1713 168.9 28.0813 168.9 29.208C168.9 30.1786 168.649 31.08 168.146 31.912C167.643 32.744 166.907 33.4113 165.936 33.914C164.965 34.3993 163.813 34.642 162.478 34.642ZM176.294 23.046V30.014C176.294 30.4993 176.406 30.8546 176.632 31.08C176.874 31.288 177.273 31.392 177.828 31.392H179.518V34.46H177.23C174.162 34.46 172.628 32.9693 172.628 29.988V23.046H170.912V20.056H172.628V16.494H176.294V20.056H179.518V23.046H176.294ZM181.2 27.206C181.2 25.75 181.486 24.4586 182.058 23.332C182.647 22.2053 183.436 21.3386 184.424 20.732C185.429 20.1253 186.547 19.822 187.778 19.822C188.852 19.822 189.788 20.0386 190.586 20.472C191.4 20.9053 192.05 21.4513 192.536 22.11V20.056H196.202V34.46H192.536V32.354C192.068 33.03 191.418 33.5933 190.586 34.044C189.771 34.4773 188.826 34.694 187.752 34.694C186.538 34.694 185.429 34.382 184.424 33.758C183.436 33.134 182.647 32.2586 182.058 31.132C181.486 29.988 181.2 28.6793 181.2 27.206ZM192.536 27.258C192.536 26.374 192.362 25.62 192.016 24.996C191.669 24.3546 191.201 23.8693 190.612 23.54C190.022 23.1933 189.39 23.02 188.714 23.02C188.038 23.02 187.414 23.1846 186.842 23.514C186.27 23.8433 185.802 24.3286 185.438 24.97C185.091 25.594 184.918 26.3393 184.918 27.206C184.918 28.0726 185.091 28.8353 185.438 29.494C185.802 30.1353 186.27 30.6293 186.842 30.976C187.431 31.3226 188.055 31.496 188.714 31.496C189.39 31.496 190.022 31.3313 190.612 31.002C191.201 30.6553 191.669 30.17 192.016 29.546C192.362 28.9046 192.536 28.142 192.536 27.258ZM203.995 23.046V30.014C203.995 30.4993 204.108 30.8546 204.333 31.08C204.576 31.288 204.974 31.392 205.529 31.392H207.219V34.46H204.931C201.863 34.46 200.329 32.9693 200.329 29.988V23.046H198.613V20.056H200.329V16.494H203.995V20.056H207.219V23.046H203.995ZM223.227 26.946C223.227 27.466 223.192 27.934 223.123 28.35H212.593C212.68 29.39 213.044 30.2046 213.685 30.794C214.326 31.3833 215.115 31.678 216.051 31.678C217.403 31.678 218.365 31.0973 218.937 29.936H222.863C222.447 31.3226 221.65 32.4666 220.471 33.368C219.292 34.252 217.845 34.694 216.129 34.694C214.742 34.694 213.494 34.3906 212.385 33.784C211.293 33.16 210.435 32.2846 209.811 31.158C209.204 30.0313 208.901 28.7313 208.901 27.258C208.901 25.7673 209.204 24.4586 209.811 23.332C210.418 22.2053 211.267 21.3386 212.359 20.732C213.451 20.1253 214.708 19.822 216.129 19.822C217.498 19.822 218.72 20.1166 219.795 20.706C220.887 21.2953 221.728 22.136 222.317 23.228C222.924 24.3026 223.227 25.542 223.227 26.946ZM219.457 25.906C219.44 24.97 219.102 24.2246 218.443 23.67C217.784 23.098 216.978 22.812 216.025 22.812C215.124 22.812 214.361 23.0893 213.737 23.644C213.13 24.1813 212.758 24.9353 212.619 25.906H219.457ZM231.396 34.694C230.217 34.694 229.16 34.486 228.224 34.07C227.288 33.6366 226.543 33.056 225.988 32.328C225.451 31.6 225.156 30.794 225.104 29.91H228.77C228.839 30.4646 229.108 30.924 229.576 31.288C230.061 31.652 230.659 31.834 231.37 31.834C232.063 31.834 232.601 31.6953 232.982 31.418C233.381 31.1406 233.58 30.7853 233.58 30.352C233.58 29.884 233.337 29.5373 232.852 29.312C232.384 29.0693 231.63 28.8093 230.59 28.532C229.515 28.272 228.631 28.0033 227.938 27.726C227.262 27.4486 226.673 27.024 226.17 26.452C225.685 25.88 225.442 25.1086 225.442 24.138C225.442 23.3406 225.667 22.6126 226.118 21.954C226.586 21.2953 227.245 20.7753 228.094 20.394C228.961 20.0126 229.975 19.822 231.136 19.822C232.852 19.822 234.221 20.2553 235.244 21.122C236.267 21.9713 236.83 23.124 236.934 24.58H233.45C233.398 24.008 233.155 23.5573 232.722 23.228C232.306 22.8813 231.743 22.708 231.032 22.708C230.373 22.708 229.862 22.8293 229.498 23.072C229.151 23.3146 228.978 23.6526 228.978 24.086C228.978 24.5713 229.221 24.944 229.706 25.204C230.191 25.4466 230.945 25.698 231.968 25.958C233.008 26.218 233.866 26.4866 234.542 26.764C235.218 27.0413 235.799 27.4746 236.284 28.064C236.787 28.636 237.047 29.3986 237.064 30.352C237.064 31.184 236.83 31.9293 236.362 32.588C235.911 33.2466 235.253 33.7666 234.386 34.148C233.537 34.512 232.54 34.694 231.396 34.694Z" fill="white"/>
</svg>
